<?xml version="1.0" encoding="utf-8"?>
<!-- Generator: Adobe Illustrator 27.6.1, SVG Export Plug-In . SVG Version: 6.00 Build 0)  -->
<svg version="1.1" id="Layer_1" xmlns="http://www.w3.org/2000/svg" xmlns:xlink="http://www.w3.org/1999/xlink" x="0px" y="0px"
	 viewBox="0 0 18 170" style="enable-background:new 0 0 18 170;" xml:space="preserve">
<style type="text/css">
	.st0{fill:#C6C6C6;}
	.st1{fill:#ADADAD;}
	.st2{fill:#F6F6F6;}
	.st3{fill:#8E8E8E;}
	.st4{fill:#D6D6D6;}
	.st5{fill:#E6E6E6;}
	.st6{fill:#CDCDCD;}
</style>
<polygon points="8.5,170 8.5,168 1.9,168 1.9,161 0,161 0,9 1.9,9 1.9,2 8.5,2 8.5,0 18,0 18,170 "/>
<polygon class="st0" points="13.6,166 13.6,156 4,156 4,14 13.6,14 13.6,4 18,4 18,166 "/>
<rect x="6" y="6" class="st1" width="12" height="158"/>
<rect x="10" y="10" class="st2" width="8" height="150"/>
<rect x="10" y="14" class="st3" width="8" height="142"/>
<rect x="14" y="18" class="st4" width="4" height="134"/>
<rect x="14" y="19.5" class="st0" width="4" height="131"/>
<g>
	<rect x="6" y="6" class="st2" width="12" height="12"/>
	<rect x="14" y="10" class="st5" width="4" height="8"/>
	<rect x="10" y="14" class="st6" width="4" height="4"/>
	<rect x="10" y="10" width="4" height="4"/>
</g>
<rect x="6" y="17.5" class="st2" width="4" height="134.6"/>
<g>
	<rect x="6" y="152" class="st2" width="12" height="12"/>
	<rect x="14" y="152" class="st5" width="4" height="8"/>
	<rect x="10" y="152" class="st6" width="4" height="4"/>
	<rect x="10" y="156" width="4" height="4"/>
</g>
</svg>
