<?xml version="1.0" encoding="utf-8"?>
<!-- Generator: Adobe Illustrator 27.7.0, SVG Export Plug-In . SVG Version: 6.00 Build 0)  -->
<svg version="1.1" id="Layer_1" xmlns="http://www.w3.org/2000/svg" xmlns:xlink="http://www.w3.org/1999/xlink" x="0px" y="0px"
	 viewBox="0 0 300 22.9" style="enable-background:new 0 0 300 22.9;" xml:space="preserve">
<style type="text/css">
	.st0{fill:#C6C6C6;}
	.st1{fill:#ADADAD;}
	.st2{fill:#8E8E8E;}
	.st3{fill:#D6D6D6;}
	.st4{fill:#F6F6F6;}
</style>
<rect class="st0" width="300" height="22.9"/>
<polygon points="0,22.9 0,0 12.1,0 12.1,22.9 "/>
<polygon class="st0" points="2.7,22.9 2.7,0 12.1,0 12.1,22.9 "/>
<rect x="4" y="0" class="st1" width="8.1" height="22.9"/>
<rect x="6.7" y="0" class="st2" width="5.4" height="22.9"/>
<rect x="9.4" y="0" class="st3" width="2.7" height="22.9"/>
<rect x="9.4" y="0" class="st0" width="2.7" height="22.9"/>
<rect x="4" y="0" class="st4" width="2.7" height="22.9"/>
<g>
	<polygon points="300,0 300,22.9 287.9,22.9 287.9,0 	"/>
	<polygon class="st0" points="297.3,0 297.3,22.9 287.9,22.9 287.9,0 	"/>
	<rect x="287.9" class="st1" width="8.1" height="22.9"/>
	<rect x="287.9" class="st2" width="5.4" height="22.9"/>
	<rect x="287.9" class="st3" width="2.7" height="22.9"/>
	<rect x="287.9" class="st0" width="2.7" height="22.9"/>
	<rect x="293.3" class="st4" width="2.7" height="22.9"/>
</g>
</svg>
