<?xml version="1.0" encoding="utf-8"?>
<!-- Generator: Adobe Illustrator 27.7.0, SVG Export Plug-In . SVG Version: 6.00 Build 0)  -->
<svg version="1.1" id="Layer_1" xmlns="http://www.w3.org/2000/svg" xmlns:xlink="http://www.w3.org/1999/xlink" x="0px" y="0px"
	 viewBox="0 0 300 14" style="enable-background:new 0 0 300 14;" xml:space="preserve">
<style type="text/css">
	.st0{fill:#C6C6C6;}
	.st1{fill:#ADADAD;}
	.st2{fill:#F6F6F6;}
	.st3{fill:#8E8E8E;}
	.st4{fill:#D6D6D6;}
	.st5{fill:#E6E6E6;}
	.st6{fill:#CDCDCD;}
</style>
<g>
	<rect x="11.9" y="0" width="276.7" height="14"/>
	<rect x="11.9" y="0" class="st0" width="276.7" height="11.3"/>
	<rect x="11.9" y="0" class="st1" width="276.7" height="10"/>
	<rect x="11.9" y="0" class="st2" width="276.7" height="7.3"/>
	<rect x="11.9" y="0" class="st3" width="276.7" height="4.6"/>
	<rect x="11.9" y="0" class="st0" width="276.7" height="1.9"/>
	<rect x="11.9" y="0.5" class="st4" width="276.7" height="1.3"/>
</g>
<g>
	<polygon points="12.1,0 12.1,14 5.7,14 5.7,12.7 1.3,12.7 1.3,7.9 0,7.9 0,0 	"/>
	<polygon class="st0" points="12.1,0 12.1,11.3 9.2,11.3 9.2,4.6 2.7,4.6 2.7,0 	"/>
	<rect x="4" y="0" class="st1" width="8.1" height="10"/>
	<rect x="6.7" y="0" class="st2" width="5.4" height="7.3"/>
	<rect x="6.7" y="0" class="st3" width="5.4" height="4.6"/>
	<rect x="9.4" y="0" class="st4" width="2.7" height="1.9"/>
	<rect x="9.4" y="0" class="st0" width="2.7" height="0.9"/>
	<g>
		<rect x="4" y="1.9" class="st2" width="8.1" height="8.1"/>
		<rect x="9.4" y="1.9" class="st5" width="2.7" height="5.4"/>
		<rect x="6.7" y="1.9" class="st6" width="2.7" height="2.7"/>
		<rect x="6.7" y="4.6" width="2.7" height="2.7"/>
	</g>
	<rect x="4" y="0" class="st2" width="2.7" height="2.2"/>
</g>
<g>
	<polygon points="300,0 300,7.9 298.7,7.9 298.7,12.7 294.3,12.7 294.3,14 287.9,14 287.9,0 	"/>
	<polygon class="st0" points="297.3,0 297.3,4.6 290.8,4.6 290.8,11.3 287.9,11.3 287.9,0 	"/>
	<rect x="287.9" y="0" class="st1" width="8.1" height="10"/>
	<rect x="287.9" y="0" class="st2" width="5.4" height="7.3"/>
	<rect x="287.9" y="0" class="st3" width="5.4" height="4.6"/>
	<rect x="287.9" y="0" class="st4" width="2.7" height="1.9"/>
	<rect x="287.9" y="0" class="st0" width="2.7" height="0.9"/>
	<g>
		<rect x="287.9" y="1.9" class="st2" width="8.1" height="8.1"/>
		<rect x="287.9" y="1.9" class="st5" width="2.7" height="5.4"/>
		<rect x="290.6" y="1.9" class="st6" width="2.7" height="2.7"/>
		<rect x="290.6" y="4.6" width="2.7" height="2.7"/>
	</g>
	<rect x="293.3" y="0" class="st2" width="2.7" height="2.2"/>
</g>
</svg>
