<?xml version="1.0" encoding="utf-8"?>
<!-- Generator: Adobe Illustrator 27.7.0, SVG Export Plug-In . SVG Version: 6.00 Build 0)  -->
<svg version="1.1" id="Layer_1" xmlns="http://www.w3.org/2000/svg" xmlns:xlink="http://www.w3.org/1999/xlink" x="0px" y="0px"
	 viewBox="0 0 300 14" style="enable-background:new 0 0 300 14;" xml:space="preserve">
<style type="text/css">
	.st0{fill:#C6C6C6;}
	.st1{fill:#ADADAD;}
	.st2{fill:#F6F6F6;}
	.st3{fill:#8E8E8E;}
	.st4{fill:#D6D6D6;}
	.st5{fill:#E6E6E6;}
	.st6{fill:#CDCDCD;}
</style>
<g>
	<rect x="11.9" width="276.7" height="14"/>
	<rect x="11.9" y="2.7" class="st0" width="276.7" height="11.3"/>
	<rect x="11.9" y="4" class="st1" width="276.7" height="10"/>
	<rect x="11.9" y="6.7" class="st2" width="276.7" height="7.3"/>
	<rect x="11.9" y="9.4" class="st3" width="276.7" height="4.6"/>
	<rect x="11.9" y="12.1" class="st0" width="276.7" height="1.9"/>
	<rect x="11.9" y="12.1" class="st4" width="276.7" height="1.3"/>
</g>
<g>
	<polygon points="0,14 0,6.1 1.3,6.1 1.3,1.3 5.7,1.3 5.7,0 12.1,0 12.1,14 	"/>
	<polygon class="st0" points="2.7,14 2.7,9.4 9.2,9.4 9.2,2.7 12.1,2.7 12.1,14 	"/>
	<rect x="4" y="4" class="st1" width="8.1" height="10"/>
	<rect x="6.7" y="6.7" class="st2" width="5.4" height="7.3"/>
	<rect x="6.7" y="9.4" class="st3" width="5.4" height="4.6"/>
	<rect x="9.4" y="12.1" class="st4" width="2.7" height="1.9"/>
	<rect x="9.4" y="13.1" class="st0" width="2.7" height="0.9"/>
	<g>
		<rect x="4" y="4" class="st2" width="8.1" height="8.1"/>
		<rect x="9.4" y="6.7" class="st5" width="2.7" height="5.4"/>
		<rect x="6.7" y="9.4" class="st6" width="2.7" height="2.7"/>
		<rect x="6.7" y="6.7" width="2.7" height="2.7"/>
	</g>
	<rect x="4" y="11.8" class="st2" width="2.7" height="2.2"/>
</g>
<g>
	<polygon points="287.9,14 287.9,0 294.3,0 294.3,1.3 298.7,1.3 298.7,6.1 300,6.1 300,14 	"/>
	<polygon class="st0" points="287.9,14 287.9,2.7 290.8,2.7 290.8,9.4 297.3,9.4 297.3,14 	"/>
	<rect x="287.9" y="4" class="st1" width="8.1" height="10"/>
	<rect x="287.9" y="6.7" class="st2" width="5.4" height="7.3"/>
	<rect x="287.9" y="9.4" class="st3" width="5.4" height="4.6"/>
	<rect x="287.9" y="12.1" class="st4" width="2.7" height="1.9"/>
	<rect x="287.9" y="13.1" class="st0" width="2.7" height="0.9"/>
	<g>
		<rect x="287.9" y="4" class="st2" width="8.1" height="8.1"/>
		<rect x="287.9" y="6.7" class="st5" width="2.7" height="5.4"/>
		<rect x="290.6" y="9.4" class="st6" width="2.7" height="2.7"/>
		<rect x="290.6" y="6.7" width="2.7" height="2.7"/>
	</g>
	<rect x="293.3" y="11.8" class="st2" width="2.7" height="2.2"/>
</g>
</svg>
