<?xml version="1.0" encoding="utf-8"?>
<!-- Generator: Adobe Illustrator 27.6.1, SVG Export Plug-In . SVG Version: 6.00 Build 0)  -->
<svg version="1.1" id="Layer_1" xmlns="http://www.w3.org/2000/svg" xmlns:xlink="http://www.w3.org/1999/xlink" x="0px" y="0px"
	 viewBox="0 0 40 40" style="enable-background:new 0 0 40 40;" xml:space="preserve">
<style type="text/css">
	.st0{fill:#FFFFFF;}
</style>
<polygon class="st0" points="35.6,17.8 35.6,13.3 31.1,13.3 31.1,8.9 26.7,8.9 26.7,4.4 22.2,4.4 22.2,8.9 22.2,13.3 22.2,17.8 
	17.8,17.8 13.3,17.8 8.9,17.8 4.4,17.8 0,17.8 0,22.2 4.4,22.2 8.9,22.2 13.3,22.2 17.8,22.2 22.2,22.2 22.2,26.7 22.2,31.1 
	22.2,35.6 26.7,35.6 26.7,31.1 31.1,31.1 31.1,26.7 35.6,26.7 35.6,22.2 40,22.2 40,17.8 "/>
</svg>
