<?xml version="1.0" encoding="utf-8"?>
<!-- Generator: Adobe Illustrator 27.1.1, SVG Export Plug-In . SVG Version: 6.00 Build 0)  -->
<svg version="1.1" id="Layer_1" xmlns="http://www.w3.org/2000/svg" xmlns:xlink="http://www.w3.org/1999/xlink" x="0px" y="0px"
	 viewBox="0 0 920 520" style="enable-background:new 0 0 920 520;" xml:space="preserve">
<style type="text/css">
	.st0{display:none;fill:#FFFFFF;}
	.st1{display:none;}
	.st2{fill:#525252;}
	.st3{fill:#3D3D3D;}
	.st4{fill:#686868;}
	.st5{fill:#1F1F1F;}
	.st6{fill:#2D2D2D;}
</style>
<rect x="990" y="171" class="st0" width="158" height="401"/>
<rect x="-81" y="-40" class="st1" width="1059" height="627"/>
<image style="display:none;overflow:visible;enable-background:new    ;" width="3840" height="2160" xlink:href="hor.jpeg"  transform="matrix(0.24 0 0 0.24 -0.8 0.8)">
</image>
<path class="st2" d="M920.1,333.1H920c0,0-35.4-15.9-47.8-19.3c-18.1-5-55.3-12.6-74-12c-20.3,0.7-77.3,18-79.3,18
	s-47.1,6.7-61.3,13.3c-7,3.3-18.1,14.6-24.7,18.7c-27.4,17.2-90.2,38.3-115.3,58.7c-0.9,0.7-12,7.2-13.1,8.5
	c16.7,0.7,50.3,3.5,51.5,3.5c2,0,88.1,9.7,119,11.5c16.5,1,59.5,4.9,76,5.5c33.2,1.3,101.6-5.6,143.4-3.1l25.8,0.1V333.1z"/>
<g>
	<path class="st3" d="M894.3,436.4c-41.7-2.5-123-7.4-156.2-8.7c-9.2-0.3-23.6-0.4-37.4-0.5c0.6-0.3,0.3-1.3,0.3-3
		c0.4,0.1,2,0.8,1.8,0.1c-1.4-1.5,1.5,0.7,2.1,0.2c0.4-0.3-1-1-0.8-1c3.7,1,3.8,0.8,0.9-2.4c4.7,2.2,0.7-1.1-0.8-3.4
		c4.8,3.1-0.6-2.8-1.3-4.8c0.5,0.2,1.2,1,1.6,0.6c-1.1-1.6-2.2-3.2-3-5.1c-0.2-0.5,0.8,0.9,1.1,0.7c-0.7-1.9-1.5-4-2.1-5.8
		c-0.4,0.9-0.6,2.2-1,3.1c-0.3,1.1-2,3.9-0.1,2.2c0.9-0.5-2.3,4.4-2.8,5c-0.1,0.7,1-0.2,1.2-0.3c2-1.1-2.8,4.5-2.9,5.1
		c-0.1,1.2,1.6-0.1,2-0.6c0.7-0.4-1.6,2.4-1.8,2.6c-0.2,0.3-1.8,1.2-1.2,1.6c0.7,0,1.7-0.3,2.3-0.6c-3.1,3.2-2.6,3.2,0.8,2.4l0,0
		c-2,1.5,1.1,1,1.6,0.1c0.4-0.5,1.8,2,1.3,0c0.6-0.1,0.2,3,0.4,3.5c-5.6-0.1-11.2-0.2-16.2-0.3c0.6-0.1,0.2-0.7,0.3-1.6
		c0.4,0.1,2,0.5,1.8,0.1c-1.4-0.8,1.5,0.4,2.1,0.1c0.4-0.1-1-0.5-0.8-0.5c3.7,0.5,3.8,0.4,0.9-1.3c4.7,1.2,0.7-0.6-0.8-1.8
		c4.8,1.7-0.6-1.5-1.3-2.6c0.5,0.1,1.2,0.5,1.6,0.3c-1.1-0.8-2.2-1.7-3-2.7c-0.2-0.2,0.8,0.5,1.1,0.4c-0.7-1-1.5-2.1-2.1-3.1
		c-0.4,0.5-0.6,1.2-1,1.7c-0.3,0.6-2,2.1-0.1,1.2c0.9-0.3-2.3,2.3-2.8,2.6c-0.1,0.4,1-0.1,1.2-0.2c2-0.6-2.8,2.4-2.9,2.7
		c-0.1,0.6,1.6-0.1,2-0.3c0.7-0.2-1.6,1.3-1.8,1.4c-0.2,0.2-1.8,0.6-1.2,0.8c0.7,0,1.7-0.1,2.3-0.3c-3.1,1.7-2.6,1.7,0.8,1.3l0,0
		c-2,0.8,1.1,0.5,1.6,0.1c0.4-0.3,1.8,1.1,1.3,0c0.6-0.1,0.2,1.6,0.4,1.8c-4.3-0.1-8.1-0.3-11.4-0.5c-1.4-0.1-3-0.2-4.6-0.3
		c0-0.6,0-2,0.2-2.1c0-0.3,1,0.8,0.9,0c0-0.2-0.5-0.5-0.2-0.4c0.6,0.2,3.4,0.6,2.3-0.9c0.3,0,1.1-0.4,0.8-0.9c-0.4,0.1-0.3,0,0-0.3
		c0-0.5-1.3,0.3-1.1-0.4c0.4-0.2,0.9-0.4,0.7-0.8c-0.8-0.6,0.4,0,0.3-0.5c-0.1-0.3-0.4-0.2-0.7-0.3c-0.2-0.1,0.3-0.1,0.4-0.1
		c0.1-0.6-1.3-0.3-1.1-0.9c0.5,0,0.1-0.4,0.4-0.3c2.1-0.4-1.6-2-1-2.5c1.4-0.1,0-0.3,1.1-0.5c0.2-0.8-1.7-0.8-1.3-1.7
		c0.5,0,0.9-0.1,0.5-0.7c0-0.2,0.6-0.2,0.2-0.6c-2.3-1.6,1.6,0.4-1.7-3.2c0.3,0.2,0.7,0.1,0.3-0.3c0-0.1,0.4,0,0.2-0.3
		c-0.8-0.5-1.2-2.4-1.9-2.8c-0.1,1-2.2,3-1.3,2.9c-0.1,0.1-0.4,0.3-0.3,0.5c1.9-0.4-2.8,2.4-0.3,2.3c0,0.7-1.8,0.9-0.6,1.4
		c-0.6,0.5,0.2,0.7,0.5,0.7c-0.1,0.8-1.2,0.8-1.5,1.6c1.9,0.7,0.9,1.3-0.5,2.4c-0.4,0.7,1.1,0.8,1.3,1.1c-0.2,0.4-1.5-0.1-1.5,0.1
		c-0.1,0.5,0.6,0.6,0.9,0.7c-0.1,0.2-0.9,0-1,0.5c-0.1,0.3,0.6,0.2,0.5,0.3c-0.9,0.6,1,1,1.1,1.2c-2.4,0.6-1.8,1-0.8,1.3
		c-1.5,1.2,1.7,1.6,2,1.1c0,1.1,1-0.2,1.3,0.5c0,0.6,0,1.5,0.2,1.9c-4.7-0.3-10.1-0.8-16.2-1.3c0.4-0.8-0.9-2.6,1.3-1.6
		c0.6,0.2,0.7-0.1,0.6-0.4c0.3-0.3,1.7,1.1,1.8-0.1c2.8,1,0.8-0.3,1.2-0.5c4.4,0.3-2.6-1.4-3.6-3.9c1.7,0.2,0.7,0,0.9-0.7
		c0.4-0.1,1.5,0.4,1.7,0.3c0-0.1-0.5-0.7-0.3-0.7c3.2,0.4-2.2-1.6-2.7-3.4c0-0.2,1.5,0.4,1.4,0.1c-1.5-1.4,0-0.5,0.7-0.8
		c0-0.1-2.8-2.7-2.7-2.8c-0.1-0.3,1.4,0.3,1.5,0.2c-0.5-0.7-1-0.8,0.3-0.7c0.4,0-2.5-2.4-2.5-2.5c-0.2-0.1-1.9,1.7-2.7,2.6
		c0.9,0.1,1.3-0.2,0.5,0.6c3.4-0.9-1.1,2-1.3,2.7c0.5,0.4,2.1-0.6,0.8,0.7c-0.2,0.4,1.3-0.2,1.3,0c-0.7,1.8-5.9,3.8-2.8,3.4
		c0.2,0-0.2,0.5-0.2,0.5c0.1,0.4,1.3-0.3,1.6-0.1c0.3,0.5-0.9,0.8,0.7,0.8c-0.3,0.9-2.2,2.5-4.5,3.4c-0.2,0.1-0.2,0.4,0.1,0.4
		c2.7-0.2-1.3,1.4,2.3,0.6c-0.3,1,1.7-0.3,1.7,0c-0.2,0.9,1.3,0.1,1.7-0.1c0.2-0.2,0.2,1.2,0.2,1.9c-5.5-0.5-11.5-1.1-17.6-1.6
		c0-0.6,0-1.7,0.3-1.8c0-0.2,1.4,0.7,1.3,0c-0.1-0.2-0.7-0.5-0.3-0.4c0.8,0.2,4.8,0.6,3.3-0.9c0.4,0,1.5-0.3,1.2-0.8
		c-0.6,0.1-0.4,0,0-0.3c-0.1-0.5-1.8,0.3-1.6-0.4c0.6-0.2,1.3-0.4,1-0.7c-1.1-0.5,0.5,0,0.4-0.5c-0.1-0.3-0.6-0.2-1-0.3
		c-0.2-0.1,0.4-0.1,0.5-0.1c0.2-0.6-1.8-0.3-1.5-0.8c0.7,0,0.2-0.4,0.6-0.3c3-0.4-2.2-1.9-1.4-2.3c2-0.1,0-0.3,1.6-0.5
		c0.3-0.8-2.4-0.8-1.9-1.6c0.7,0,1.3-0.1,0.6-0.6c0.1-0.2,0.8-0.2,0.3-0.6c-3.3-1.5,2.2,0.4-2.4-3c0.4,0.2,1,0.1,0.5-0.3
		c0-0.1,0.6,0,0.3-0.3c-1.2-0.5-1.7-2.3-2.7-2.6c-0.2,1-3.1,2.8-1.8,2.7c-0.1,0.1-0.6,0.3-0.4,0.5c2.7-0.4-3.9,2.2-0.4,2.2
		c0,0.7-2.6,0.8-0.9,1.3c-0.9,0.4,0.3,0.6,0.8,0.7c-0.2,0.7-1.7,0.8-2.1,1.5c2.6,0.7,1.3,1.2-0.7,2.2c-0.6,0.7,1.5,0.8,1.9,1
		c-0.3,0.3-2.1-0.1-2.1,0.1c-0.1,0.5,0.9,0.6,1.3,0.7c-0.2,0.2-1.3,0-1.5,0.4c-0.2,0.3,0.8,0.2,0.7,0.3c-1.3,0.5,1.3,0.9,1.6,1.2
		c-3.3,0.6-2.6,1-1.1,1.2c-2.1,1.2,2.4,1.5,2.8,1c0.1,1.1,1.4-0.2,1.8,0.5c0,0.5,0,1.1,0.2,1.6c-5.3-0.5-10.8-1.1-16.2-1.6
		c0.2-0.6,0.2-1.7,0.2-2.5c0.3-0.9,1.2,0.8,1.2-0.6c0.3,0.7,3.3,0.2,1.9-1.4c1-0.3,1.5-0.9-0.8-1.6c0.2-0.3,1.9-0.8,1.1-1.6
		c-0.1-0.1,0.6,0,0.5-0.4c-0.1-0.6-0.9-0.3-1-0.6c0.2-0.2,0.9-0.3,0.8-0.9c0-0.3-1.2,0.3-1.4-0.1c0.2-0.3,1.7-0.4,1.2-1.4
		c-1.3-1.4-2.3-2.1-0.5-3c-0.3-1-1.3-1.1-1.4-2c0.3-0.1,1.1-0.3,0.5-0.9c1.1-0.7-0.6-0.9-0.6-1.8c2.4,0.1-2.1-3.5-0.3-2.9
		c0.1-0.2-0.2-0.5-0.3-0.6c0.9,0.1-1.1-2.3-1.2-3.6c-0.7,0.5-1,2.9-1.8,3.5c-0.2,0.4,0.2,0.2,0.2,0.4c-0.4,0.5,0.1,0.6,0.3,0.4
		c-3.1,4.6,0.6,2-1.6,4.1c-0.3,0.5,0.2,0.5,0.2,0.8c-0.4,0.7-0.1,0.8,0.4,0.9c0.3,1.1-1.4,1.1-1.2,2.2c1,0.2-0.3,0.5,1.1,0.7
		c0.5,0.6-3,2.6-1,3.1c0.3-0.1-0.1,0.4,0.4,0.4c0.2,0.7-1.1,0.3-1,1.1c0.1,0.1,0.5,0.1,0.4,0.2c-0.3,0.1-0.6,0-0.7,0.4
		c-0.1,0.6,1,0,0.3,0.7c-0.2,0.5,0.3,0.7,0.6,1c0.1,0.9-1-0.1-1.1,0.5c0.3,0.4,0.4,0.5,0,0.4c-0.2,0.7,0.5,1.1,0.8,1.1
		c-1,1.9,1.7,1.4,2.2,1.2c0.2-0.1-0.2,0.3-0.2,0.5c-0.1,1,0.9-0.3,0.9,0c0.2,0.1,0.2,1.7,0.2,2.6c-3.9-0.4-7.8-0.8-11.6-1.2
		c0,0,0,0,0,0c0-0.1,0-2,0.2-1.8c0.3,0.1,1.3,0.8,1.2,0c0-0.3,1.4,0.8,1.2,0c2.4,0.7-0.3-0.6,1.6-0.5c0.2,0,0.2-0.3,0-0.3
		c-1.5-0.7-2.9-2-3-2.7c1.1,0,0.3-0.2,0.5-0.6c0.2-0.1,1,0.4,1.1,0.1c0-0.1-0.3-0.4-0.1-0.4c2.1,0.3-1.4-1.2-1.9-2.7
		c-0.1-0.2,1,0.3,0.9,0c-0.8-1.1,0.2-0.3,0.6-0.6c-0.2-0.5-3.2-2.8-0.9-2.1c-0.6-0.7-0.3-0.5,0.3-0.5c-0.6-0.7-1.7-2.1-1.8-2
		c0,0.1-1.9,2-1.7,2c0.8,0,0.5,0,0.2,0.6c0,0.1,1-0.4,1-0.1c0,0-1.8,2.2-1.9,2.2c0.4,0.3,1.4-0.5,0.4,0.6c-0.1,0.3,1-0.2,1,0
		c-0.4,1.4-4,3-1.9,2.7c0.1,0-0.2,0.5-0.2,0.5c0.2,0.1,0.9-0.3,1.2-0.2c0.1,0.5-0.6,0.7,0.6,0.5c-0.7,2-5.4,3.4-2.4,3.1
		c0.2,0.2-1,1.2,0.8,0.4c0.1,0.9,1.1-0.2,1.2,0.1c0,0.2,0,0.5,0.4,0.3c1.6-0.9,0.4,0.9,1,1.4c-8.6-0.9-16.9-1.8-24.3-2.6
		c0.1-0.4-0.1-1.4,0.2-1.3c-0.4,0.9,0.6-0.2,0.9,0c0.3,0.4,2.4,0.6,1.1,0l0,0c2.3,0.3,2.6,0.4,0.6-1c0.4,0.2,1,0.3,1.5,0.3
		c0.4-0.2-0.7-0.5-0.8-0.7c-0.1-0.1-1.7-1.3-1.2-1.1c0.3,0.2,1.4,0.8,1.3,0.3c0-0.2-3.3-2.7-2-2.2c0.1,0.1,0.9,0.5,0.8,0.1
		c-0.3-0.2-2.5-2.3-1.9-2.1c1.2,0.7,0.1-0.5-0.1-0.9c-0.3-0.4-0.4-0.9-0.7-1.3c-0.4,0.8-0.9,1.7-1.4,2.5c0.2,0.1,0.8-0.5,0.7-0.3
		c-0.5,0.8-1.3,1.5-2,2.2c0.3,0.2,0.8-0.2,1.1-0.3c-0.5,0.8-4.1,3.4-0.9,2c-1,0.9-3.8,2.4-0.6,1.4c-2,1.4-1.9,1.4,0.6,1
		c0.1,0-0.8,0.3-0.5,0.4c0.4,0.2,2.3-0.7,1.4-0.1c-0.1,0.3,1,0,1.2,0c0,0.5-0.1,0.8,0,1c-4.4-0.5-8.5-0.9-12.1-1.3
		c0-0.5-0.1-1.2,0.2-1.1c-0.4,0.9,0.6-0.2,0.9,0c0.3,0.4,2.4,0.6,1.1,0l0,0c2.3,0.3,2.6,0.4,0.6-1c0.4,0.2,1,0.3,1.5,0.3
		c0.4-0.2-0.7-0.5-0.8-0.7c-0.1-0.1-1.7-1.3-1.2-1.1c0.3,0.2,1.4,0.8,1.3,0.3c0-0.2-3.3-2.7-2-2.2c0.1,0.1,0.9,0.5,0.8,0.1
		c-0.3-0.2-2.5-2.3-1.9-2.1c1.2,0.7,0.1-0.5-0.1-0.9c-0.3-0.4-0.4-0.9-0.7-1.3c-0.4,0.8-0.9,1.7-1.4,2.5c0.2,0.1,0.8-0.5,0.7-0.3
		c-0.5,0.8-1.3,1.5-2,2.2c0.3,0.2,0.8-0.2,1.1-0.3c-0.5,0.8-4.1,3.4-0.9,2c-1,0.9-3.8,2.4-0.6,1.4c-2,1.4-1.9,1.4,0.6,1
		c0.1,0-0.8,0.3-0.5,0.4c0.4,0.2,2.3-0.7,1.4-0.1c-0.1,0.3,1,0,1.2,0c0,0.4,0,0.6,0,0.9c-4-0.4-7.3-0.8-9.9-1
		c0.1-0.3-0.1-1.8,0.2-1.7c-0.3,1,0.4-0.2,0.6,0c0.2,0.4,1.7,0.7,0.7-0.1l0,0c1.6,0.4,1.8,0.4,0.4-1.2c0.3,0.2,0.7,0.3,1.1,0.3
		c0.2-0.2-0.5-0.6-0.6-0.8c-0.1-0.1-1.2-1.5-0.8-1.3c0.2,0.3,1,0.9,0.9,0.3c0-0.3-2.3-3.2-1.4-2.6c0.1,0.1,0.6,0.6,0.6,0.2
		c-0.2-0.3-1.7-2.8-1.3-2.5c0.8,0.9,0.1-0.6-0.1-1.1c-0.2-0.5-0.3-1.1-0.5-1.6c-0.3,0.9-0.6,2-1,2.9c0.1,0.1,0.6-0.6,0.5-0.4
		c-0.4,1-0.9,1.8-1.4,2.6c0.2,0.2,0.5-0.2,0.7-0.3c-0.3,1-2.8,4-0.6,2.4c-0.7,1.1-2.6,2.8-0.4,1.7c-1.4,1.6-1.3,1.7,0.4,1.2
		c0.1,0-0.5,0.4-0.4,0.5c0.3,0.3,1.6-0.8,1-0.1c-0.1,0.4,0.7,0,0.9-0.1c0,0.7-0.1,1.3,0.1,1.4c-3-0.3-4.8-0.5-5.1-0.5
		c-0.7,0-7.3-0.1-16.1-0.3c0-0.5,0-1.1,0.2-1.1c-0.3,0.9,0.4-0.2,0.6,0c0.2,0.4,1.8,0.6,0.8,0l0,0c1.7,0.3,1.9,0.4,0.4-1
		c0.3,0.2,0.8,0.3,1.1,0.3c0.3-0.2-0.5-0.5-0.6-0.7c-0.1-0.1-1.2-1.3-0.9-1.1c0.2,0.2,1,0.8,1,0.3c0-0.2-2.4-2.7-1.4-2.2
		c0.1,0.1,0.7,0.5,0.6,0.1c-0.2-0.2-1.8-2.3-1.4-2.1c0.9,0.7,0.1-0.5-0.1-0.9c-0.2-0.4-0.3-0.9-0.5-1.3c-0.3,0.8-0.7,1.7-1,2.5
		c0.1,0.1,0.6-0.5,0.5-0.3c-0.4,0.8-1,1.5-1.5,2.2c0.2,0.2,0.6-0.2,0.8-0.3c-0.3,0.8-3,3.4-0.6,2c-0.8,0.9-2.7,2.4-0.4,1.4
		c-1.4,1.4-1.4,1.4,0.4,1c0.1,0-0.6,0.3-0.4,0.4c0.3,0.2,1.7-0.7,1-0.1c-0.1,0.3,0.7,0,0.9,0c0,0.3,0,0.6,0,0.8
		c-5.4-0.1-11.5-0.3-17.8-0.6c-12-0.5-24.2-1.3-31-2.4c-19.7-3.4-57.9-15.9-76.7-22.7c-22.8-8.2-66.9-28.8-89.3-38
		c-8.8-3.6-26.1-11.5-35.3-14c-4.4-1.2-13.5-2.7-18-2.7c-11,0-27.5,2.5-43.8,5.3c0-0.4-0.1-1.1,0.2-1c-0.3,0.7,0.5-0.2,0.7,0
		c0.3,0.3,2,0.5,0.9,0l0,0c1.9,0.3,2.1,0.3,0.5-0.8c0.3,0.1,0.9,0.2,1.3,0.2c0.3-0.1-0.6-0.4-0.7-0.5c-0.1-0.1-1.4-1-1-0.9
		c0.2,0.2,1.1,0.6,1.1,0.2c0-0.2-2.7-2.2-1.6-1.8c0.1,0,0.7,0.4,0.7,0.1c-0.3-0.2-2-1.9-1.5-1.7c1,0.6,0.1-0.4-0.1-0.8
		c-0.2-0.3-0.4-0.8-0.6-1.1c-0.3,0.7-0.8,1.4-1.1,2c0.2,0.1,0.7-0.4,0.6-0.2c-0.4,0.7-1.1,1.2-1.7,1.8c0.2,0.1,0.6-0.1,0.9-0.2
		c-0.4,0.7-3.4,2.8-0.7,1.7c-0.8,0.8-3.1,2-0.5,1.2c-1.6,1.1-1.6,1.2,0.5,0.8c0.1,0-0.6,0.2-0.4,0.3c0.3,0.2,1.9-0.6,1.1-0.1
		c-0.1,0.3,0.8,0,1,0c0,0.4-0.1,0.8,0,0.9c-2.4,0.4-4.7,0.8-7.1,1.3c0-0.5,0-1.3,0.1-1.2c0.2,0.1,1.1,0.6,1,0c0-0.2,1.1,0.6,1,0
		c2,0.5-0.2-0.5,1.3-0.4c0.1,0,0.2-0.2,0-0.3c-1.2-0.6-2.3-1.6-2.5-2.2c0.9,0,0.2-0.2,0.4-0.5c0.2-0.1,0.8,0.4,0.9,0.1
		c0,0-0.2-0.3-0.1-0.4c1.7,0.3-1.1-1-1.5-2.2c0-0.2,0.8,0.2,0.7,0c-0.7-0.9,0.2-0.3,0.5-0.5c-0.1-0.4-2.6-2.3-0.7-1.7
		c-0.5-0.5-0.2-0.4,0.3-0.4c-0.5-0.5-1.4-1.8-1.5-1.7c0,0.1-1.6,1.6-1.4,1.7c0.7,0,0.4,0,0.1,0.5c0,0.1,0.8-0.3,0.8-0.1
		c0,0-1.5,1.8-1.5,1.8c0.3,0.2,1.2-0.4,0.4,0.5c0,0.2,0.8-0.2,0.8,0c-0.3,1.2-3.3,2.5-1.5,2.2c0.1,0-0.2,0.4-0.2,0.4
		c0.1,0.1,0.7-0.2,0.9-0.2c0.1,0.4-0.5,0.6,0.5,0.4c-0.5,1.7-4.4,2.8-2,2.6c0.2,0.2-0.9,1,0.7,0.3c0.1,0.7,0.9-0.2,1,0
		c0,0.1,0,0.4,0.3,0.2c1.2-0.7,0.5,0.5,0.7,1c-2.6,0.5-5.1,0.9-7.6,1.4c0.2-0.1,0.2-0.5,0.2-0.7c0.2-0.2,0.7,0.2,0.7-0.2
		c0.1,0.2,1.9,0.1,1.1-0.4c0.6-0.1,0.9-0.2-0.4-0.4c0.1-0.1,1.1-0.2,0.6-0.4c0,0,0.3,0,0.3-0.1c-0.1-0.2-0.5-0.1-0.6-0.2
		c0.1,0,0.5-0.1,0.5-0.2c0-0.1-0.7,0.1-0.8,0c0.1-0.1,1-0.1,0.7-0.4c-0.8-0.4-1.3-0.6-0.3-0.8c-0.2-0.3-0.8-0.3-0.8-0.6
		c0.2,0,0.6-0.1,0.3-0.2c0.7-0.2-0.3-0.3-0.3-0.5c1.4,0-1.2-0.9-0.2-0.8c0.1-0.1-0.1-0.1-0.2-0.2c0.5,0-0.6-0.6-0.7-1
		c-0.4,0.1-0.6,0.8-1,0.9c-0.1,0.1,0.1,0,0.1,0.1c-0.2,0.1,0,0.2,0.2,0.1c-1.8,1.2,0.4,0.6-0.9,1.1c-0.2,0.1,0.1,0.1,0.1,0.2
		c-0.2,0.2,0,0.2,0.2,0.2c0.2,0.3-0.8,0.3-0.7,0.6c0.6,0.1-0.2,0.1,0.6,0.2c0.3,0.2-1.7,0.7-0.6,0.8c0.2,0,0,0.1,0.2,0.1
		c0.1,0.2-0.7,0.1-0.6,0.3c0,0,0.3,0,0.2,0c-0.2,0-0.4,0-0.4,0.1c0,0.2,0.6,0,0.2,0.2c-0.1,0.1,0.1,0.2,0.4,0.3
		c0.1,0.2-0.6,0-0.6,0.1c0.2,0.1,0.2,0.1,0,0.1c-0.1,0.2,0.3,0.3,0.5,0.3c-0.6,0.5,1,0.4,1.3,0.3c0.1,0-0.1,0.1-0.1,0.1
		c0,0.3,0.5-0.1,0.5,0c0.2,0,0.1,0.7,0.1,0.8c0,0,0,0,0,0c-2.6,0.5-5.2,0.9-7.6,1.4c0.2-0.3,0.2-0.8,0.2-1.3c0.2-0.4,1,0.4,1-0.3
		c0.2,0.3,2.7,0.1,1.5-0.7c0.8-0.2,1.2-0.4-0.6-0.8c0.1-0.2,1.6-0.4,0.9-0.8c0-0.1,0.5,0,0.4-0.2c-0.1-0.3-0.7-0.1-0.8-0.3
		c0.2-0.1,0.8-0.1,0.7-0.5c0-0.1-1,0.2-1.2-0.1c0.2-0.2,1.4-0.2,1-0.7c-1.1-0.7-1.8-1-0.4-1.5c-0.2-0.5-1.1-0.5-1.2-1
		c0.3,0,0.9-0.2,0.4-0.4c0.9-0.4-0.5-0.5-0.5-0.9c1.9,0-1.7-1.7-0.2-1.4c0.1-0.1-0.2-0.2-0.2-0.3c0.7,0.1-0.9-1.1-1-1.8
		c-0.5,0.2-0.8,1.4-1.5,1.7c-0.1,0.2,0.1,0.1,0.2,0.2c-0.3,0.3,0.1,0.3,0.2,0.2c-2.6,2.2,0.5,1-1.3,2c-0.3,0.2,0.2,0.2,0.2,0.4
		c-0.4,0.3,0,0.4,0.4,0.4c0.3,0.5-1.2,0.5-1,1c0.8,0.1-0.2,0.2,0.9,0.3c0.4,0.3-2.4,1.3-0.8,1.5c0.2,0,0,0.2,0.3,0.2
		c0.1,0.4-0.9,0.2-0.8,0.6c0.1,0,0.4,0,0.3,0.1c-0.2,0-0.5,0-0.6,0.2c-0.1,0.3,0.8,0,0.2,0.3c-0.2,0.2,0.2,0.3,0.5,0.5
		c0.1,0.4-0.8,0-0.9,0.3c0.2,0.2,0.3,0.2,0,0.2c-0.2,0.3,0.4,0.5,0.6,0.5c-0.9,0.9,1.4,0.7,1.8,0.6c0.2-0.1-0.1,0.1-0.2,0.3
		c0,0.5,0.7-0.1,0.7,0c0.2,0.1,0.2,1.1,0.1,1.4c-5.3,0.9-10.1,1.8-14.1,2.4c-0.2,0-0.3,0.1-0.5,0.1c0-0.4-0.1-1.3,0.1-1.3
		c-0.2,0.8,0.3-0.2,0.5,0c0.2,0.4,1.4,0.6,0.6,0l0,0c1.3,0.3,1.5,0.3,0.3-1c0.2,0.2,0.6,0.3,0.9,0.3c0.2-0.2-0.4-0.5-0.5-0.6
		c-0.1-0.1-0.9-1.2-0.7-1.1c0.2,0.2,0.8,0.7,0.7,0.3c0-0.2-1.8-2.6-1.1-2.1c0.1,0.1,0.5,0.5,0.5,0.1c-0.2-0.2-1.4-2.3-1.1-2
		c0.7,0.7,0.1-0.5-0.1-0.9c-0.2-0.4-0.2-0.9-0.4-1.3c-0.2,0.8-0.5,1.6-0.8,2.4c0.1,0.1,0.5-0.5,0.4-0.3c-0.3,0.8-0.7,1.5-1.1,2.1
		c0.2,0.2,0.4-0.2,0.6-0.3c-0.3,0.8-2.3,3.3-0.5,2c-0.6,0.9-2.1,2.3-0.3,1.4c-1.1,1.3-1.1,1.4,0.3,1c0.1,0-0.4,0.3-0.3,0.4
		c0.2,0.2,1.3-0.7,0.8-0.1c-0.1,0.3,0.5,0,0.7,0c0,0.5-0.1,0.9,0,1.1c-1.9,0.3-4,0.6-6.2,1c0.1-0.1-0.1-1.3,0.2-1.2
		c-0.2,0.7,0.3-0.2,0.5,0c0.2,0.3,1.5,0.5,0.6,0l0,0c1.4,0.3,1.6,0.3,0.3-0.8c0.2,0.1,0.6,0.2,0.9,0.2c0.2-0.1-0.4-0.4-0.5-0.5
		c-0.1-0.1-1-1-0.7-0.9c0.2,0.2,0.8,0.6,0.8,0.2c0-0.2-2-2.2-1.2-1.8c0.1,0,0.5,0.4,0.5,0.1c-0.2-0.2-1.5-1.9-1.1-1.7
		c0.7,0.6,0.1-0.4-0.1-0.8c-0.2-0.3-0.3-0.8-0.4-1.1c-0.2,0.7-0.6,1.4-0.8,2c0.1,0.1,0.5-0.4,0.4-0.2c-0.3,0.7-0.8,1.2-1.2,1.8
		c0.2,0.1,0.5-0.1,0.6-0.2c-0.3,0.7-2.5,2.8-0.5,1.7c-0.6,0.8-2.2,2-0.3,1.2c-1.2,1.1-1.1,1.2,0.4,0.8c0.1,0-0.5,0.2-0.3,0.3
		c0.2,0.2,1.4-0.6,0.8-0.1c-0.1,0.3,0.6,0,0.7,0c0,0.7-0.1,1,0.2,1.1c-2.7,0.4-5.5,0.9-8.5,1.3c0-0.6,0-2,0.1-1.8
		c0.2,0.1,1.1,0.9,1,0.1c0-0.3,1.1,0.9,1,0c2,0.7-0.2-0.7,1.3-0.5c0.1,0,0.2-0.3,0-0.4c-1.2-0.8-2.3-2.2-2.5-3
		c0.9,0,0.2-0.2,0.4-0.7c0.2-0.1,0.8,0.5,0.9,0.1c0-0.1-0.2-0.5-0.1-0.5c1.7,0.3-1.1-1.4-1.5-3c0-0.2,0.8,0.3,0.7,0
		c-0.7-1.2,0.2-0.3,0.5-0.7c-0.1-0.6-2.6-3.1-0.7-2.4c-0.5-0.7-0.2-0.5,0.3-0.6c-0.5-0.7-1.4-2.4-1.5-2.3c0,0.1-1.6,2.2-1.4,2.3
		c0.7,0,0.4,0.1,0.1,0.6c0,0.1,0.8-0.4,0.8-0.1c0,0.1-1.5,2.4-1.5,2.5c0.3,0.3,1.2-0.5,0.4,0.7c0,0.3,0.8-0.2,0.8-0.1
		c-0.3,1.6-3.3,3.4-1.5,3c0.1,0-0.2,0.6-0.2,0.6c0.1,0.1,0.7-0.3,0.9-0.2c0.1,0.6-0.5,0.8,0.5,0.6c-0.5,2.3-4.4,3.8-2,3.5
		c0.2,0.2-0.9,1.3,0.7,0.5c0.1,1,0.9-0.2,1,0.1c0,0.2,0,0.5,0.3,0.3c1.2-0.9,0.4,0.8,0.7,1.5c-2.4,0.4-4.8,0.8-7.4,1.2
		c0.1-0.2,0.1-0.5,0.1-0.8c0.2-0.3,0.7,0.3,0.8-0.2c0.2,0.2,2.1,0.1,1.2-0.4c0.6-0.1,0.9-0.3-0.5-0.5c0.1-0.1,1.2-0.3,0.7-0.5
		c0,0,0.4,0,0.3-0.1c-0.1-0.2-0.6-0.1-0.6-0.2c0.1-0.1,0.6-0.1,0.5-0.3c0-0.1-0.7,0.1-0.9,0c0.1-0.1,1-0.1,0.8-0.4
		c-0.8-0.4-1.4-0.7-0.3-1c-0.2-0.3-0.8-0.3-0.9-0.7c0.2,0,0.7-0.1,0.3-0.3c0.7-0.2-0.4-0.3-0.4-0.6c1.5,0-1.3-1.1-0.2-0.9
		c0.1-0.1-0.1-0.1-0.2-0.2c0.6,0-0.7-0.7-0.8-1.2c-0.4,0.1-0.6,0.9-1.1,1.1c-0.1,0.1,0.1,0.1,0.1,0.1c-0.2,0.2,0,0.2,0.2,0.1
		c-2,1.5,0.4,0.7-1,1.3c-0.2,0.2,0.1,0.2,0.1,0.2c-0.3,0.2,0,0.3,0.3,0.3c0.2,0.4-0.9,0.3-0.8,0.7c0.6,0.1-0.2,0.2,0.7,0.2
		c0.3,0.2-1.9,0.8-0.6,1c0.2,0,0,0.1,0.2,0.1c0.1,0.2-0.7,0.1-0.6,0.4c0,0,0.3,0,0.2,0.1c-0.2,0-0.4,0-0.4,0.1
		c-0.1,0.2,0.6,0,0.2,0.2c-0.1,0.2,0.2,0.2,0.4,0.3c0.1,0.3-0.6,0-0.7,0.2c0.2,0.1,0.2,0.2,0,0.1c-0.1,0.2,0.3,0.4,0.5,0.4
		c-0.7,0.6,1,0.5,1.4,0.4c0.1,0-0.1,0.1-0.1,0.2c0,0.3,0.5-0.1,0.6,0c0.2,0,0.1,0.6,0.1,0.9c-2.2,0.3-4.5,0.7-6.8,1.1
		c0-0.4-0.1-1,0.2-1c-0.3,0.7,0.5-0.2,0.7,0c0.3,0.3,2,0.5,0.9,0l0,0c1.9,0.3,2.1,0.3,0.5-0.8c0.3,0.1,0.9,0.2,1.3,0.2
		c0.3-0.1-0.6-0.4-0.7-0.5c-0.1-0.1-1.4-1-1-0.9c0.2,0.2,1.1,0.6,1.1,0.2c0-0.2-2.7-2.2-1.6-1.8c0.1,0,0.7,0.4,0.7,0.1
		c-0.3-0.2-2-1.9-1.5-1.7c1,0.6,0.1-0.4-0.1-0.8c-0.2-0.3-0.4-0.8-0.6-1.1c-0.3,0.7-0.8,1.4-1.1,2c0.2,0.1,0.7-0.4,0.6-0.2
		c-0.4,0.7-1.1,1.2-1.7,1.8c0.2,0.1,0.6-0.1,0.9-0.2c-0.4,0.7-3.4,2.8-0.7,1.7c-0.8,0.8-3.1,2-0.5,1.2c-1.6,1.1-1.6,1.2,0.5,0.8
		c0.1,0-0.6,0.2-0.4,0.3c0.3,0.2,1.9-0.6,1.1-0.1c-0.1,0.3,0.8,0,1,0c0,0.4-0.1,0.7,0,0.9C92.7,359.7,0,374.4,0,374.4V520h920v-82
		C920,438,909.9,437.4,894.3,436.4z"/>
	<path class="st3" d="M186.1,341.5c-1.6,1.6-1.6,1.7,0.5,1.2c0.1,0-0.6,0.4-0.4,0.5c0.3,0.3,1.9-0.8,1.1-0.1c-0.1,0.4,0.8,0,1-0.1
		c0,1-0.2,1.6,0.4,1.5c0.2-0.1-0.1-1.9,0.3-1.8c-0.3,1,0.5-0.2,0.7,0c0.3,0.4,2,0.7,0.9-0.1l0,0c1.9,0.4,2.1,0.4,0.5-1.2
		c0.3,0.2,0.9,0.3,1.3,0.3c0.3-0.2-0.6-0.6-0.7-0.8c-0.1-0.1-1.4-1.5-1-1.3c0.2,0.3,1.1,0.9,1.1,0.3c0-0.3-2.7-3.2-1.6-2.6
		c0.1,0.1,0.7,0.6,0.7,0.2c-0.3-0.3-2-2.8-1.5-2.5c1,0.9,0.1-0.6-0.1-1.1c-0.2-0.5-0.4-1.1-0.6-1.6c-0.3,0.9-0.8,2-1.1,2.9
		c0.2,0.1,0.7-0.6,0.6-0.4c-0.4,1-1.1,1.8-1.7,2.6c0.2,0.2,0.6-0.2,0.9-0.3c-0.4,1-3.4,4-0.7,2.4C185.8,341,183.5,342.7,186.1,341.5
		z"/>
	<path class="st3" d="M509.6,410.9c-0.2,0.3,0.4,0.4,0.6,0.4c-0.8,0.7,1.3,0.6,1.7,0.5c0.2,0-0.1,0.1-0.2,0.2c0,0.4,0.7-0.1,0.7,0
		c0.2,0,0.1,0.9,0.1,1.1c0.6,0.2,0.6-0.6,0.6-1.1c0.2-0.3,0.9,0.3,0.9-0.2c0.2,0.3,2.5,0.1,1.4-0.5c0.8-0.1,1.1-0.3-0.6-0.6
		c0.1-0.1,1.5-0.3,0.8-0.6c0,0,0.5,0,0.4-0.2c-0.1-0.2-0.7-0.1-0.8-0.2c0.2-0.1,0.7-0.1,0.6-0.4c0-0.1-0.9,0.1-1.1-0.1
		c0.2-0.1,1.3-0.2,1-0.5c-1-0.5-1.7-0.8-0.4-1.2c-0.2-0.4-1-0.4-1.1-0.8c0.3,0,0.8-0.1,0.4-0.4c0.9-0.3-0.5-0.4-0.5-0.7
		c1.8,0-1.6-1.3-0.2-1.1c0.1-0.1-0.2-0.2-0.2-0.2c0.7,0.1-0.8-0.9-0.9-1.4c-0.5,0.2-0.8,1.1-1.4,1.4c-0.1,0.1,0.1,0.1,0.2,0.1
		c-0.3,0.2,0,0.2,0.2,0.1c-2.4,1.8,0.5,0.8-1.2,1.6c-0.2,0.2,0.1,0.2,0.2,0.3c-0.3,0.3,0,0.3,0.3,0.3c0.3,0.4-1.1,0.4-1,0.8
		c0.8,0.1-0.2,0.2,0.8,0.3c0.4,0.2-2.3,1-0.7,1.2c0.2,0,0,0.2,0.3,0.2c0.1,0.3-0.9,0.1-0.8,0.4c0.1,0,0.4,0,0.3,0.1
		c-0.2,0-0.5,0-0.5,0.1c-0.1,0.3,0.8,0,0.2,0.3c-0.2,0.2,0.2,0.3,0.5,0.4c0.1,0.4-0.8,0-0.8,0.2
		C509.8,410.9,509.9,410.9,509.6,410.9z"/>
	<path class="st3" d="M538.6,411c0.2,0.3-1,1.6,0.8,0.6c0.1,1.2,1.1-0.3,1.2,0.1c0,0.2,0,0.6,0.4,0.4c1.6-1.2,0.4,1.2,1,2
		c0.1-0.1,0.6,0.3,0.6,0c0-0.1,0-2.8,0.2-2.4c0.3,0.2,1.3,1,1.2,0.1c0-0.3,1.4,1.1,1.2,0c2.4,0.9-0.3-0.9,1.6-0.6
		c0.2,0,0.2-0.4,0-0.5c-1.5-1-2.9-2.7-3-3.7c1.1,0,0.3-0.3,0.5-0.8c0.2-0.1,1,0.6,1.1,0.1c0-0.1-0.3-0.6-0.1-0.6
		c2.1,0.4-1.4-1.7-1.9-3.7c-0.1-0.3,1,0.4,0.9,0c-0.8-1.4,0.2-0.4,0.6-0.8c-0.2-0.7-3.2-3.9-0.9-2.9c-0.6-0.9-0.3-0.6,0.3-0.7
		c-0.6-0.9-1.7-2.9-1.8-2.8c0,0.1-1.9,2.7-1.7,2.8c0.8-0.1,0.5,0.1,0.2,0.8c0,0.1,1-0.5,1-0.2c0,0.1-1.8,3-1.9,3
		c0.4,0.4,1.4-0.6,0.4,0.9c-0.1,0.4,1-0.3,1-0.1c-0.4,2-4,4.2-1.9,3.7c0.1,0-0.2,0.7-0.2,0.7c0.2,0.1,0.9-0.4,1.2-0.3
		c0.1,0.7-0.6,0.9,0.6,0.7C540.3,409.4,535.6,411.3,538.6,411z"/>
	<path class="st3" d="M519.8,411.2c-2,1.4-1.9,1.4,0.6,1c0.1,0-0.8,0.3-0.5,0.4c0.4,0.2,2.3-0.7,1.4-0.1c-0.1,0.3,1,0,1.2,0
		c0.1,0.9-0.3,1.3,0.5,1.3c0.3-0.1-0.1-1.6,0.3-1.5c-0.4,0.9,0.6-0.2,0.9,0c0.3,0.4,2.4,0.6,1.1,0l0,0c2.3,0.3,2.6,0.4,0.6-1
		c0.4,0.2,1,0.3,1.5,0.3c0.4-0.2-0.7-0.5-0.8-0.7c-0.1-0.1-1.7-1.3-1.2-1.1c0.3,0.2,1.4,0.8,1.3,0.3c0-0.2-3.3-2.7-2-2.2
		c0.1,0.1,0.9,0.5,0.8,0.1c-0.3-0.2-2.5-2.3-1.9-2.1c1.2,0.7,0.1-0.5-0.1-0.9c-0.3-0.4-0.4-0.9-0.7-1.3c-0.4,0.8-0.9,1.7-1.4,2.5
		c0.2,0.1,0.8-0.5,0.7-0.3c-0.5,0.8-1.3,1.5-2,2.2c0.3,0.2,0.8-0.2,1.1-0.3c-0.5,0.8-4.1,3.4-0.9,2
		C519.3,410.7,516.6,412.1,519.8,411.2z"/>
	<path class="st3" d="M586.1,414.8c-0.2,0.4,0.4,0.6,0.6,0.6c-0.7,1.1,1.2,0.8,1.6,0.7c0.2-0.1-0.1,0.2-0.2,0.3c0,0.6,0.6-0.2,0.6,0
		c0.2,0.1,0.1,1.4,0.1,1.7c0.5,0.4,0.6-0.8,0.6-1.6c0.2-0.5,0.8,0.5,0.9-0.4c0.2,0.4,2.3,0.1,1.3-0.8c0.7-0.2,1-0.5-0.5-0.9
		c0.1-0.2,1.4-0.5,0.8-0.9c0-0.1,0.4,0,0.3-0.2c-0.1-0.3-0.6-0.2-0.7-0.3c0.2-0.1,0.7-0.2,0.6-0.5c0-0.2-0.8,0.2-1-0.1
		c0.2-0.2,1.2-0.3,0.9-0.8c-0.9-0.8-1.6-1.2-0.3-1.7c-0.2-0.6-0.9-0.6-1-1.2c0.2,0,0.8-0.2,0.4-0.5c0.8-0.4-0.4-0.5-0.4-1
		c1.7,0.1-1.5-2-0.2-1.7c0.1-0.1-0.1-0.3-0.2-0.4c0.6,0.1-0.8-1.3-0.9-2.1c-0.5,0.3-0.7,1.6-1.3,2c-0.1,0.2,0.1,0.1,0.1,0.2
		c-0.3,0.3,0,0.3,0.2,0.2c-2.2,2.6,0.4,1.2-1.1,2.3c-0.2,0.3,0.1,0.3,0.2,0.4c-0.3,0.4,0,0.5,0.3,0.5c0.2,0.6-1,0.6-0.9,1.2
		c0.7,0.1-0.2,0.3,0.7,0.4c0.4,0.3-2.1,1.5-0.7,1.8c0.2,0,0,0.2,0.3,0.2c0.1,0.4-0.8,0.2-0.7,0.6c0.1,0,0.4,0.1,0.3,0.1
		c-0.2,0.1-0.4,0-0.5,0.2c-0.1,0.4,0.7,0,0.2,0.4c-0.1,0.3,0.2,0.4,0.5,0.6c0.1,0.5-0.7-0.1-0.7,0.3
		C586.3,414.8,586.4,414.9,586.1,414.8z"/>
</g>
<path class="st4" d="M704,459.3c0,0-214.7,6-219.3,4.7c-4.7-1.3-4.7-3.3-12-3.3s-87.3-2.7-87.3-2.7L298,488.7l-9.3,31.3H702
	L704,459.3z"/>
<rect x="1010" y="199" class="st5" width="76" height="76"/>
<rect x="1011.5" y="289" class="st6" width="76" height="76"/>
<rect x="1013.5" y="378" class="st3" width="76" height="76"/>
<rect x="1015.5" y="472" class="st2" width="76" height="76"/>
<path class="st6" d="M227,481c22-21,33.9-43.2,50-51c16.7-8.1,55.4-6.6,74-6c12.4,0.4,37.5,2.4,49,7c14.8,5.9,38,29.4,52,37
	c4.7,2.6,20,8,20,8s-17.8,7-24,8c-16.5,2.7-64,0-67,0c-3,0-47.2,3.1-63,3C295.2,486.8,227,481,227,481z"/>
<path class="st6" d="M471,491c0,0,25.9-9.7,34-14c7-3.7,23-15,26-18s15.7-11.8,22-12c14.2-0.5,40,15.1,53,21
	c7.4,3.4,21.5,11.9,29,15c9,3.7,37,12,37,12s-63,4.4-84,5c-21.7,0.6-65.5,3.2-87,0C493.2,498.8,471,491,471,491z"/>
<path class="st5" d="M906.8,398.5c0-0.4-0.1-1.6,0.2-1.3c0.5,0.2,2.3,1.2,2,0.1c0-0.4,2.4,1.2,2,0c4.2,1-0.5-1,2.7-0.7
	c0.3,0,0.3-0.4,0.1-0.5c-2.6-1.2-4.9-3.1-5.2-4.3c1.9,0,0.5-0.3,0.8-1c0.4-0.2,1.8,0.7,1.9,0.1c0-0.1-0.5-0.7-0.2-0.7
	c3.6,0.5-2.4-1.9-3.2-4.2c-0.1-0.3,1.7,0.4,1.5,0c-1.4-1.7,0.4-0.5,1-0.9c-0.3-0.8-5.5-4.4-1.6-3.3c-1-1-0.5-0.7,0.5-0.8
	c-1-1-2.9-3.4-3.2-3.2c0,0.1-3.3,3.1-2.9,3.2c1.4-0.1,0.9,0.1,0.3,0.9c0,0.1,1.8-0.6,1.7-0.2c0,0.1-3.2,3.4-3.2,3.5
	c0.7,0.4,2.5-0.7,0.8,1c-0.1,0.4,1.7-0.3,1.7-0.1c-0.7,2.2-6.9,4.8-3.2,4.3c0.2,0-0.4,0.8-0.4,0.9c0.3,0.2,1.5-0.5,2-0.3
	c0.2,0.8-1,1.1,1.1,0.8c-1.1,3.2-9.3,5.3-4.2,4.9c0.4,0.3-1.8,1.8,1.4,0.7c0.1,1.4,1.8-0.3,2.1,0.1c-0.1,0.3,0,0.7,0.7,0.5
	c2.5-1.3,1,0,1.5,0.9c-7.3,0.4-16.7,1-26.6,1.6c0-0.2,0-0.3,0-0.5c0.7-1.1,3,1,3.1-0.8c0.6,0.9,8.2,0.2,4.7-1.7
	c2.5-0.4,3.7-1.1-1.9-2.1c0.4-0.4,4.8-1.1,2.6-2c-0.1-0.1,1.5,0,1.2-0.5c-0.3-0.7-2.2-0.4-2.5-0.7c0.6-0.2,2.3-0.3,2.1-1.2
	c0-0.3-3,0.4-3.5-0.2c0.6-0.4,4.1-0.6,3.1-1.7c-3.3-1.8-5.6-2.6-1.2-3.8c-0.7-1.3-3.2-1.4-3.5-2.6c0.8-0.1,2.7-0.4,1.3-1.2
	c2.9-0.9-1.5-1.2-1.5-2.3c5.9,0.1-5.2-4.4-0.7-3.7c0.3-0.3-0.5-0.6-0.7-0.8c2.2,0.2-2.7-2.9-3.1-4.6c-1.6,0.6-2.5,3.6-4.5,4.4
	c-0.4,0.5,0.4,0.2,0.5,0.5c-0.9,0.7,0.2,0.8,0.8,0.5c-7.8,5.8,1.5,2.6-4,5.1c-0.8,0.6,0.5,0.6,0.6,1c-1.1,0.9-0.1,1,1.1,1.1
	c0.9,1.4-3.6,1.4-3.1,2.7c2.6,0.3-0.7,0.6,2.6,0.8c1.3,0.7-7.4,3.3-2.4,3.9c0.7-0.1-0.1,0.5,1,0.5c0.4,0.9-2.8,0.4-2.5,1.4
	c0.2,0.1,1.3,0.1,0.9,0.2c-0.7,0.1-1.5,0-1.7,0.5c-0.2,0.8,2.5-0.1,0.7,0.8c-0.5,0.6,0.6,0.9,1.6,1.3c0.4,1.2-2.5-0.1-2.6,0.7
	c0.7,0.6,1,0.6,0,0.5c-0.6,0.8,1.3,1.4,2,1.4c-2.6,2.4,4.1,1.8,5.5,1.5c0.6-0.1-0.4,0.4-0.5,0.7c-0.1,1.3,2.2-0.3,2.2,0.1
	c0.4,0.1,0.5,0.4,0.5,0.7c-8.2,0.6-16.7,1.2-24.7,2c1.8-0.6,5-1.3,2.7-2.3c-0.2-0.2,2,0,1.7-0.7c-0.4-1-3.1-0.5-3.4-1
	c0.8-0.3,3.2-0.5,2.9-1.6c0-0.5-4.1,0.6-4.9-0.2c0.8-0.5,5.7-0.8,4.3-2.4c-4.6-2.4-7.7-3.6-1.6-5.2c-0.9-1.8-4.5-1.9-4.9-3.6
	c1.2-0.1,3.8-0.6,1.8-1.6c3.9-1.3-2.1-1.6-2-3.2c8.1,0.2-7.2-6-0.9-5.1c0.4-0.4-0.7-0.8-0.9-1.1c3,0.3-3.8-4-4.3-6.3
	c-2.2,0.8-3.5,5-6.2,6.1c-0.6,0.6,0.6,0.3,0.7,0.6c-1.3,0.9,0.2,1,1,0.7c-10.7,8,2.1,3.6-5.5,7.1c-1.1,0.8,0.6,0.8,0.8,1.4
	c-1.5,1.2-0.2,1.4,1.5,1.5c1.2,2-4.9,1.9-4.3,3.7c3.5,0.4-1,0.9,3.6,1.2c1.9,1-10.3,4.5-3.3,5.4c1-0.1-0.2,0.7,1.3,0.7
	c0.6,1.3-3.9,0.6-3.5,2c0.3,0.1,1.8,0.2,1.3,0.3c-1,0.2-2.1,0-2.4,0.6c-0.3,1.1,3.5-0.1,0.9,1.2c-0.7,0.9,0.9,1.2,2.2,1.8
	c0.5,1.6-3.5-0.2-3.6,0.9c1,0.8,1.3,0.9,0.1,0.7c-0.4,0.5,0,1,0.5,1.3c-1.2,0.2-2.4,0.4-3.5,0.6c-3.2,0.7-6.9,1.5-10.8,2.6
	c-0.5-1-0.8-2,2.2-1.6c0.6-0.1,0.7-1.3,0.1-1.6c-5.4-3.5-10.2-9.2-10.8-12.7c3.9,0,1-0.9,1.7-2.8c0.8-0.5,3.7,2.1,3.8,0.4
	c0-0.3-0.9-1.9-0.5-2c7.5,1.5-5-5.7-6.7-12.6c-0.2-1,3.5,1.3,3.1-0.1c-2.9-4.9,0.8-1.5,2-2.8c-0.5-2.5-11.3-13.1-3.2-9.9
	c-2.1-3.1-1-2.1,1.1-2.3c-2-3-6.1-10-6.6-9.6c0.1,0.3-6.9,9.3-6,9.5c3-0.2,1.9,0.2,0.7,2.6c0.1,0.4,3.7-1.7,3.5-0.6
	c0,0.2-6.5,10.1-6.6,10.3c1.5,1.2,5.1-2.2,1.6,3c-0.2,1.3,3.5-1,3.4-0.2c-1.4,6.7-14.3,14.2-6.6,12.7c0.4,0.1-0.8,2.3-0.8,2.5
	c0.6,0.5,3.1-1.4,4.1-1c0.5,2.3-2,3.2,2.2,2.4c-2.3,9.4-19.3,15.8-8.6,14.6c0.9,1-3.7,5.5,2.9,1.9c0.3,4.3,3.8-1,4.4,0.3
	c-0.1,0.8,0.1,2.2,1.5,1.4c5.1-3.7,2.2,0,3.2,2.5c-5.8,1.8-11.8,3.9-17.9,6c0-0.1-0.1-0.1-0.1-0.2c-0.6-0.5-7.6-9-5.4-7.7
	c1.2,1.6,6.3,5.4,5.9,1.9c-0.2-1.7-14.7-18.8-8.8-15.4c0.7,0.4,4.1,3.3,3.7,1c-1.4-1.8-11.1-16.6-8.4-14.9c5.5,5.2,0.5-3.3-0.4-6.5
	c-1.3-2.8-2-6.6-3.1-9.3c-1.9,5.6-4.2,11.9-6.3,17.5c0.9,0.4,3.7-3.5,3.2-2.1c-2.5,5.8-5.9,10.7-9.1,15.4c1.2,1.2,3.4-1.3,4.8-1.9
	c-2.1,6-18.4,23.8-4,14.4c-4.6,6.7-16.8,16.8-2.5,10.1c-8.8,9.6-8.5,10.1,2.8,7.1c0.3,0-1.5,1-2.3,1.9c-5.1,2.1-10,4.1-14.4,6
	c0,0,0-0.1,0-0.1c0-0.5-4.1,0.6-4.9-0.2c0.8-0.5,5.7-0.8,4.3-2.4c-4.6-2.4-7.7-3.6-1.6-5.2c-0.9-1.8-4.5-1.9-4.9-3.6
	c1.2-0.1,3.8-0.6,1.8-1.6c3.9-1.3-2.1-1.6-2-3.2c8.1,0.2-7.2-6-0.9-5.1c0.4-0.4-0.7-0.8-0.9-1.1c3,0.3-3.8-4-4.3-6.3
	c-2.2,0.8-3.5,5-6.2,6.1c-0.6,0.6,0.6,0.3,0.7,0.6c-1.3,0.9,0.2,1,1,0.7c-10.7,8,2.1,3.6-5.5,7.1c-1.1,0.8,0.6,0.8,0.8,1.4
	c-1.5,1.2-0.2,1.4,1.5,1.5c1.2,2-4.9,1.9-4.3,3.7c3.5,0.4-1,0.9,3.6,1.2c1.9,1-10.3,4.5-3.3,5.4c1-0.1-0.2,0.7,1.3,0.7
	c0.6,1.3-3.9,0.6-3.5,2c0.3,0.1,1.8,0.2,1.3,0.3c-1,0.2-2.1,0-2.4,0.6c-0.3,1.1,3.5-0.1,0.9,1.2c-0.7,0.9,0.9,1.2,2.2,1.8
	c0.5,1.6-3.5-0.2-3.6,0.9c1,0.8,1.3,0.9,0.1,0.7c-0.8,1.2,1.8,1.9,2.7,2c-1.7,1.6-0.5,2.2,1.3,2.4c-4,1.9-8.3,4.1-12.8,6.3
	c-1.8-1.5-3-3-3.3-4.1c3.9,0,1-0.6,1.7-2c0.8-0.3,3.7,1.4,3.8,0.3c0-0.2-0.9-1.3-0.5-1.4c7.5,1-5-4-6.7-8.7
	c-0.2-0.7,3.5,0.9,3.1-0.1c-2.9-3.4,0.8-1,2-1.9c-0.5-1.7-11.3-9.1-3.2-6.9c-2.1-2.1-1-1.5,1.1-1.6c-2-2.1-6.1-7-6.6-6.6
	c0.1,0.2-6.9,6.5-6,6.6c3-0.1,1.9,0.1,0.7,1.8c0.1,0.3,3.7-1.1,3.5-0.4c0,0.2-6.5,7-6.6,7.2c1.5,0.8,5.1-1.5,1.6,2.1
	c-0.2,0.9,3.5-0.7,3.4-0.2c-1.4,4.6-14.3,9.9-6.6,8.8c0.4,0.1-0.8,1.6-0.8,1.8c0.6,0.3,3.1-1,4.1-0.7c0.5,1.6-2,2.3,2.2,1.7
	c-2.3,6.6-19.3,11-8.6,10.2c0.9,0.7-3.7,3.8,2.9,1.3c0.3,2.9,3.5-0.4,4.3,0.1c-3.7,1.9-7.4,3.7-11,5.5c-0.7-0.6-1.5-1.1-1.7-1.4
	c-0.4-0.3-4.9-5.7-3.5-4.9c0.8,1,4,3.5,3.8,1.2c-0.1-1.1-9.5-12-5.7-9.8c0.4,0.3,2.6,2.1,2.4,0.7c-0.9-1.1-7.2-10.5-5.4-9.5
	c3.5,3.3,0.3-2.1-0.3-4.1c-0.8-1.8-1.3-4.2-2-5.9c-1.2,3.6-2.7,7.5-4.1,11.1c0.6,0.3,2.4-2.2,2.1-1.4c-1.6,3.7-3.8,6.8-5.9,9.8
	c0.8,0.7,2.2-0.8,3.1-1.2c-1.4,3.8-11.9,15.2-2.6,9.2c-3,4.3-10.9,10.7-1.6,6.4c-5.7,6.1-5.5,6.4,1.8,4.5c0.3,0-2.3,1.4-1.5,1.9
	c1.1,1,6.7-3.2,4.1-0.3c-0.3,1.4,2.8,0.1,3.6-0.2c0,0.3,0,0.5,0,0.7c-8.6,4.3-15.5,7.6-18.7,9c-0.3-0.6-0.8-1.2-1.3-2
	c0.6,0.6,1.7,1.1,2.5,1c0.6-0.6-1.2-1.9-1.3-2.4c-0.2-0.3-2.7-4.6-1.9-3.9c0.4,0.8,2.2,2.8,2.1,0.9c-0.1-0.9-5.3-9.6-3.2-7.9
	c0.2,0.2,1.5,1.7,1.3,0.5c-0.5-0.9-4-8.5-3-7.6c2,2.6,0.2-1.7-0.2-3.3c-0.5-1.4-0.7-3.4-1.1-4.8c-0.7,2.9-1.5,6.1-2.3,8.9
	c0.3,0.2,1.3-1.8,1.1-1.1c-0.9,3-2.1,5.4-3.3,7.9c0.4,0.6,1.2-0.7,1.7-0.9c-0.8,3-6.6,12.2-1.4,7.4c-1.7,3.4-6,8.6-0.9,5.2
	c-3.2,4.9-3,5.2,1,3.6c0.2,0-1.3,1.1-0.9,1.5c0.6,0.8,3.7-2.6,2.3-0.3c-0.2,1.1,1.6,0.1,2-0.2c0,0,0,0.1,0,0.1
	c-8.9,4.5-27.1,15.1-35.2,18.7c-11.1,5-46,16.2-46,16.2H920V397.8C920,397.8,914.8,398,906.8,398.5z M635.5,484.2c0,0.1,0,0.2,0,0.3
	c-0.1,0-0.1,0.1-0.2,0.1C635.2,484.3,635.3,484.2,635.5,484.2z M661.9,472.3c-0.1,0.1-0.3,0.1-0.4,0.2c0.1-0.5,0.2-0.8,0.5-0.7
	C661.9,472,661.9,472.1,661.9,472.3z M670.3,468.1c-0.3-0.3-0.6-0.7-1-1.1c0.4,0.3,1,0.5,1.6,0.8C670.7,467.9,670.5,468,670.3,468.1
	z M801.3,411.9c0-1.5-0.2-4,0.3-3.2c1,0.5,4.8,3.6,4.2,0.2c0-0.6,1.2,0.3,2.4,0.9C806,410.5,803.7,411.2,801.3,411.9z M810.1,409.3
	c0-0.1,0-0.2,0-0.4c0.2,0.1,0.4,0.2,0.7,0.2C810.5,409.2,810.3,409.3,810.1,409.3z"/>
<path class="st5" d="M335.5,487.8c-3.3-2.2-7.6-5.9-12.1-9.8c1.3-0.6,3.5,2.5,3.6-1.2c0.9,2.1,11.4,0.6,6.4-4.1c3.4-1,5.1-2.6-2.6-5
	c0.5-1,6.6-2.5,3.7-4.7c-0.2-0.3,2,0,1.7-1.2c-0.4-1.8-3.1-0.9-3.4-1.8c0.8-0.6,3.2-0.8,2.9-2.8c0-0.8-4.1,1-4.9-0.4
	c0.8-0.9,5.7-1.3,4.3-4.1c-4.6-4.2-7.7-6.2-1.6-9c-0.9-3.1-4.5-3.2-4.9-6.2c1.2-0.2,3.8-1,1.8-2.8c3.9-2.2-2.1-2.8-2-5.5
	c8.1,0.3-7.2-10.4-0.9-8.8c0.4-0.6-0.7-1.4-0.9-1.9c3,0.5-3.8-7-4.3-11c-2.2,1.4-3.5,8.7-6.2,10.6c-0.6,1.1,0.6,0.6,0.7,1.1
	c-1.3,1.6,0.2,1.8,1,1.1c-10.7,13.9,2.1,6.2-5.5,12.3c-1.1,1.4,0.6,1.4,0.8,2.3c-1.5,2.1-0.2,2.5,1.5,2.6c1.2,3.4-4.9,3.3-4.3,6.5
	c3.5,0.7-1,1.5,3.6,2c1.9,1.7-10.3,7.8-3.3,9.4c1-0.2-0.2,1.2,1.3,1.2c0.6,2.2-3.9,1-3.5,3.4c0.3,0.2,1.8,0.3,1.3,0.6
	c-1,0.3-2.1,0.1-2.4,1.1c-0.3,2,3.5-0.1,0.9,2c-0.4,0.8-0.1,1.3,0.4,1.8c-0.6-0.4-1.1-0.8-1.6-1.1c-5.2-3.3-12.7-6.8-20.9-10.4
	c0,0,0,0,0-0.1c0.1-1.1,6.7,3.4,5.7,0c11.8,2.8-1.3-2.7,7.7-2c0.8-0.1,1-1.2,0.2-1.5c-7.4-3.2-13.9-8.5-14.9-11.7
	c5.4,0,1.4-0.8,2.4-2.6c1.1-0.5,5.1,1.9,5.3,0.4c0-0.3-1.3-1.8-0.7-1.9c10.3,1.3-6.9-5.3-9.2-11.6c-0.2-0.9,4.8,1.2,4.2-0.1
	c-4-4.5,1.1-1.3,2.8-2.6c-0.7-2.3-15.6-12.2-4.4-9.2c-2.8-2.9-1.3-2,1.5-2.2c-2.7-2.8-8.3-9.3-9-8.8c0.1,0.3-9.5,8.6-8.2,8.8
	c4.1-0.2,2.5,0.2,0.9,2.4c0.1,0.4,5-1.5,4.8-0.6c0,0.2-9,9.4-9.1,9.5c2.1,1.1,7-2,2.1,2.7c-0.3,1.2,4.8-0.9,4.7-0.2
	c-1.9,6.2-19.6,13.1-9.1,11.7c0.6,0.1-1.1,2.1-1.1,2.3c0.8,0.5,4.2-1.3,5.6-0.9c0.7,2.2-2.7,3,3,2.3c-0.9,2.5-3.4,4.7-6.3,6.7
	c-9.5-4.3-18.3-8.6-23.9-13.1c0.1-2.5-0.4-7,0.8-6.7c-1.4,6.5,2.2-1.5,3.4,0.1c1.3,2.8,9.5,4.5,4.2-0.4l0-0.1
	c8.9,2.6,10.2,2.7,2.2-7.6c1.5,1.2,4.1,2.2,6,2c1.4-1.2-2.8-3.9-3.2-5c-0.5-0.5-6.6-9.6-4.7-8.2c1.1,1.6,5.5,5.8,5.2,2
	c-0.2-1.8-12.8-20-7.7-16.4c0.6,0.4,3.5,3.5,3.2,1.1c-1.2-1.9-9.7-17.6-7.3-15.9c4.8,5.5,0.4-3.6-0.4-6.9c-1.1-3-1.7-7.1-2.7-9.9
	c-1.6,6-3.6,12.6-5.5,18.6c0.8,0.5,3.3-3.7,2.8-2.3c-2.1,6.2-5.1,11.3-7.9,16.4c1.1,1.2,3-1.4,4.2-2c-1.8,6.3-16,25.4-3.5,15.4
	c-1.2,2.1-2.9,4.4-4.4,6.6c-4.8-7.1-9.6-14.1-13.7-17.9c-1.4-1.3-2.9-2.6-4.5-4c1.5,0.9,4.8,3,4.2,0c0-1.2,5.4,3.6,4.6,0
	c9.5,3.1-1-3,6.2-2.2c0.6-0.1,0.8-1.3,0.1-1.6c-6-3.5-11.2-9.2-11.9-12.7c4.3,0,1.1-0.9,1.9-2.8c0.9-0.5,4.1,2.1,4.2,0.4
	c0-0.3-1-1.9-0.5-2c8.3,1.5-5.5-5.7-7.4-12.6c-0.2-1,3.9,1.3,3.4-0.1c-3.2-4.9,0.9-1.5,2.2-2.8c-0.6-2.5-12.5-13.1-3.6-9.9
	c-2.3-3.1-1.1-2.1,1.2-2.3c-2.2-3-6.7-10-7.2-9.6c0.1,0.3-7.6,9.3-6.6,9.5c3.3-0.2,2,0.2,0.7,2.6c0.1,0.4,4-1.7,3.8-0.6
	c0,0.2-7.2,10.1-7.3,10.3c1.7,1.2,5.7-2.2,1.7,3c-0.2,1.3,3.8-1,3.8-0.2c-1.6,6.7-15.7,14.2-7.3,12.7c0.5,0.1-0.9,2.3-0.9,2.5
	c0.7,0.5,3.4-1.4,4.5-1c0.5,2.3-2.2,3.2,2.4,2.4c-0.7,2.6-2.6,5-4.8,7c-3.5-2.6-7.1-5.3-10.9-7.9c1.5-0.5,2.1-1.3,0.1-2.4
	c3.4-0.6,5.1-1.5-2.6-2.9c0.5-0.6,6.6-1.5,3.7-2.7c-0.2-0.2,2,0,1.7-0.7c-0.4-1-3.1-0.5-3.4-1c0.8-0.3,3.2-0.5,2.9-1.6
	c0-0.5-4.1,0.6-4.9-0.2c0.8-0.5,5.7-0.8,4.3-2.4c-4.6-2.4-7.7-3.6-1.6-5.2c-0.9-1.8-4.5-1.9-4.9-3.6c1.2-0.1,3.8-0.6,1.8-1.6
	c3.9-1.3-2.1-1.6-2-3.2c8.1,0.2-7.2-6-0.9-5.1c0.4-0.4-0.7-0.8-0.9-1.1c3,0.3-3.8-4-4.3-6.3c-2.2,0.8-3.5,5-6.2,6.1
	c-0.6,0.6,0.6,0.3,0.7,0.6c-1.3,0.9,0.2,1,1,0.7c-10.7,8,2.1,3.6-5.5,7.1c-1.1,0.8,0.6,0.8,0.8,1.4c-1.5,1.2-0.2,1.4,1.5,1.5
	c1.2,2-4.9,1.9-4.3,3.7c3.5,0.4-1,0.9,3.6,1.2c0.9,0.5-1.5,1.5-3.4,2.6c-6.6-4-12.8-7.6-18.2-10.2c1.3,0.6,2.6,0.9,2.2-1.1
	c0-1.2,5.4,3.6,4.6,0c9.5,3.1-1-3,6.2-2.2c0.6-0.1,0.8-1.3,0.1-1.6c-6-3.5-11.2-9.2-11.9-12.7c4.3,0,1.1-0.9,1.9-2.8
	c0.9-0.5,4.1,2.1,4.2,0.4c0-0.3-1-1.9-0.5-2c8.3,1.5-5.5-5.7-7.4-12.6c-0.2-1,3.9,1.3,3.4-0.1c-3.2-4.9,0.9-1.5,2.2-2.8
	c-0.6-2.5-12.5-13.1-3.6-9.9c-2.3-3.1-1.1-2.1,1.2-2.3c-2.2-3-6.7-10-7.2-9.6c0.1,0.3-7.6,9.3-6.6,9.5c3.3-0.2,2,0.2,0.7,2.6
	c0.1,0.4,4-1.7,3.8-0.6c0,0.2-7.2,10.1-7.3,10.3c1.7,1.2,5.7-2.2,1.7,3c-0.2,1.3,3.8-1,3.8-0.2c-1.6,6.7-15.7,14.2-7.3,12.7
	c0.5,0.1-0.9,2.3-0.9,2.5c0.7,0.5,3.4-1.4,4.5-1c0.5,2.3-2.2,3.2,2.4,2.4c-1.2,4.4-5.9,8.2-9.4,10.8c-2.7-0.8-5.5-1.6-8.3-2.3
	c1.9-0.3,0.3-2.5-5.4-8.5c1.7,1.1,4.7,2.1,6.9,1.9c1.6-1.2-3.2-3.7-3.7-4.7c-0.6-0.5-7.6-9-5.4-7.7c1.2,1.6,6.3,5.4,5.9,1.9
	c-0.2-1.7-14.7-18.8-8.8-15.4c0.7,0.4,4.1,3.3,3.7,1c-1.4-1.8-11.1-16.6-8.4-14.9c5.5,5.2,0.5-3.3-0.4-6.5c-1.3-2.8-2-6.6-3.1-9.3
	c-1.9,5.6-4.2,11.9-6.3,17.5c0.9,0.4,3.7-3.5,3.2-2.1c-2.5,5.8-5.9,10.7-9.1,15.4c1.2,1.2,3.4-1.3,4.8-1.9c-2.1,6-18.4,23.8-4,14.4
	c-4.6,6.7-16.8,16.8-2.5,10.1c-4.6,5-6.7,7.5-6.1,8.4c-1.8,0.4-3.7,0.9-5.5,1.3c-0.4-0.8-1.6-2.2-3.8-4.5c1.1,0.7,3,1.3,4.4,1.2
	c1-0.7-2.1-2.3-2.4-3c-0.4-0.3-4.9-5.7-3.5-4.9c0.8,1,4,3.5,3.8,1.2c-0.1-1.1-9.5-12-5.7-9.8c0.4,0.3,2.6,2.1,2.4,0.7
	c-0.9-1.1-7.2-10.5-5.4-9.5c3.5,3.3,0.3-2.1-0.3-4.1c-0.8-1.8-1.3-4.2-2-5.9c-1.2,3.6-2.7,7.5-4.1,11.1c0.6,0.3,2.4-2.2,2.1-1.4
	c-1.6,3.7-3.8,6.8-5.9,9.8c0.8,0.7,2.2-0.8,3.1-1.2c-1.4,3.8-11.9,15.2-2.6,9.2c-3,4.3-10.9,10.7-1.6,6.4c-1.3,1.4-2.2,2.4-2.9,3.2
	c-2.2-1.7-6.9-4.6-7.9-7.4c-0.2-0.7,3.5,0.9,3.1-0.1c-2.9-3.4,0.8-1,2-1.9c-0.5-1.7-11.3-9.1-3.2-6.9c-2.1-2.1-1-1.5,1.1-1.6
	c-2-2.1-6.1-7-6.6-6.6c0.1,0.2-6.9,6.5-6,6.6c3-0.1,1.9,0.1,0.7,1.8c0.1,0.3,3.7-1.1,3.5-0.4c0,0.2-6.5,7-6.6,7.2
	c1.5,0.8,5.1-1.5,1.6,2.1c-0.2,0.9,3.5-0.7,3.4-0.2c-1.4,4.6-14.3,9.9-6.6,8.8c0.4,0.1-0.8,1.6-0.8,1.8c0.6,0.3,3.1-1,4.1-0.7
	c0.5,1.6-2,2.3,2.2,1.7c-0.7,1.9-2.6,3.6-4.7,5.1c-5.1-0.3-10.7-0.5-15.5-0.8c0-1.2-0.2-3.2,0.3-3c-0.6,3.1,0.9-0.7,1.4,0.1
	c0.5,1.4,3.9,2.2,1.7-0.2l0,0c3.7,1.2,4.2,1.3,0.9-3.6c0.6,0.6,1.7,1.1,2.5,1c0.6-0.6-1.2-1.9-1.3-2.4c-0.2-0.3-2.7-4.6-1.9-3.9
	c0.4,0.8,2.2,2.8,2.1,0.9c-0.1-0.9-5.3-9.6-3.2-7.9c0.2,0.2,1.5,1.7,1.3,0.5c-0.5-0.9-4-8.5-3-7.6c2,2.6,0.2-1.7-0.2-3.3
	c-0.5-1.4-0.7-3.4-1.1-4.8c-0.7,2.9-1.5,6.1-2.3,8.9c0.3,0.2,1.3-1.8,1.1-1.1c-0.9,3-2.1,5.4-3.3,7.9c0.4,0.6,1.2-0.7,1.7-0.9
	c-0.8,3-6.6,12.2-1.4,7.4c-1.7,3.4-6,8.6-0.9,5.2c-3.2,4.9-3,5.2,1,3.6c0.2,0-1.3,1.1-0.9,1.5c0.6,0.8,3.7-2.6,2.3-0.3
	c-0.2,1.1,1.6,0.1,2-0.2c0,1,0,1.7,0,2.2C4.2,346,0,345.8,0,345.8V520h305.5l68.7-10.2C374.2,509.8,344.7,494.1,335.5,487.8z
	 M140.7,346.5c0.4,0.2,1.2,0.7,2,1.1c-0.8-0.4-1.6-0.8-2.3-1.1C140.5,346.3,140.6,346.3,140.7,346.5z M66.2,339.4
	c1.1,0.3,2,0.5,2.8,0.6c-0.6,0.1-1.1,0.3-1.7,0.4C67.1,340.2,66.7,339.9,66.2,339.4L66.2,339.4z M60.5,339.6
	c-1.1,3.9,1.7-0.9,2.5,0.1c0.3,0.6,1.2,1.1,2.1,1.3c-1.8,0.5-3.5,1-5.3,1.4C59.9,341,59.8,339.4,60.5,339.6z M42.7,340.4
	c0.8-0.3,3.7,1.4,3.8,0.3c0-0.2-0.9-1.3-0.5-1.4c0.1,0,0.2,0,0.3,0c-0.6,1.4,1.2,1.1,5.6-0.1c0.3,0-2.3,1.4-1.5,1.9
	c1.1,1,6.7-3.2,4.1-0.3c-0.3,1.4,2.8,0.1,3.6-0.2c0,1.1,0,1.9,0,2.4c-5.4,1.5-10.2,2.9-13.4,3.8c-1.9-1.6-3.3-3.2-3.6-4.4
	C44.9,342.4,42,341.7,42.7,340.4z M238.6,427c0,1.1,0,2,0,2.8c-0.6-0.6-1.2-1.3-1.8-1.9C237.5,427.5,238.2,427.2,238.6,427z
	 M310.3,466.9C310.3,466.9,310.3,466.9,310.3,466.9c-0.3-0.2-0.7-0.4-1-0.6C309.6,466.4,310,466.6,310.3,466.9z"/>
</svg>
