<?xml version="1.0" encoding="iso-8859-1"?>
<!-- Generator: Adobe Illustrator 26.0.3, SVG Export Plug-In . SVG Version: 6.00 Build 0)  -->
<svg version="1.1" id="Layer_1" xmlns="http://www.w3.org/2000/svg" xmlns:xlink="http://www.w3.org/1999/xlink" x="0px" y="0px"
	 width="433px" height="200px" viewBox="0 0 433 200" enable-background="new 0 0 433 200" xml:space="preserve">
<rect x="142.555" y="-0.137" fill="#777777" stroke="#000000" stroke-miterlimit="10" width="147.89" height="99.088"/>
<rect x="165.597" y="21.671" fill="#999999" stroke="#000000" stroke-miterlimit="10" width="101.806" height="77.28"/>
<path fill="#EEEEEE" d="M167.452,97.79c0-27.089,21.96-49.048,49.048-49.048s49.048,21.96,49.048,49.048H167.452z"/>
<g>
	<rect x="358.009" y="6.795" fill="#565656" stroke="#1D1D1B" stroke-miterlimit="10" width="7.244" height="97.58"/>
	<rect x="290.262" y="6.795" fill="#565656" stroke="#1D1D1B" stroke-miterlimit="10" width="7.244" height="97.58"/>
	<rect x="290.262" y="6.795" fill="#565656" stroke="#1D1D1B" stroke-miterlimit="10" width="7.244" height="97.58"/>
	<rect x="425.756" y="6.795" fill="#565656" stroke="#1D1D1B" stroke-miterlimit="10" width="7.244" height="97.58"/>
	<rect x="290.262" fill="#4E4E4E" stroke="#1D1D1B" stroke-miterlimit="10" width="142.738" height="7.355"/>
	<rect x="290.262" y="103.677" fill="#4E4E4E" stroke="#1D1D1B" stroke-miterlimit="10" width="142.738" height="7.355"/>
	<g>
		<rect x="365.231" y="21.603" fill="#3D3D3D" stroke="#1D1D1B" stroke-miterlimit="10" width="60.562" height="3.513"/>
		<rect x="365.231" y="43.087" fill="#3D3D3D" stroke="#1D1D1B" stroke-miterlimit="10" width="60.562" height="3.513"/>
		<rect x="365.231" y="64.571" fill="#3D3D3D" stroke="#1D1D1B" stroke-miterlimit="10" width="60.562" height="3.513"/>
		<rect x="365.231" y="86.054" fill="#3D3D3D" stroke="#1D1D1B" stroke-miterlimit="10" width="60.562" height="3.513"/>
	</g>
	<g>
		<rect x="297.462" y="21.603" fill="#3D3D3D" stroke="#1D1D1B" stroke-miterlimit="10" width="60.562" height="3.513"/>
		<rect x="297.462" y="43.087" fill="#3D3D3D" stroke="#1D1D1B" stroke-miterlimit="10" width="60.562" height="3.513"/>
		<rect x="297.462" y="64.571" fill="#3D3D3D" stroke="#1D1D1B" stroke-miterlimit="10" width="60.562" height="3.513"/>
		<rect x="297.462" y="86.054" fill="#3D3D3D" stroke="#1D1D1B" stroke-miterlimit="10" width="60.562" height="3.513"/>
	</g>
</g>
<g>
	<g>
		<rect x="313.304" y="24.882" fill="#ADADAD" width="5.461" height="5.918"/>
		<rect x="313.304" y="30.748" fill="#7A7A7A" width="5.423" height="12.536"/>
	</g>
	<rect x="313.048" y="24.649" fill="none" stroke="#1D1D1B" stroke-miterlimit="10" width="6.058" height="18.943"/>
</g>
<g>
	<g>
		<rect x="319.497" y="24.882" fill="#ADADAD" width="5.461" height="5.918"/>
		<rect x="319.497" y="30.748" fill="#7A7A7A" width="5.423" height="12.536"/>
	</g>
	<rect x="319.241" y="24.649" fill="none" stroke="#1D1D1B" stroke-miterlimit="10" width="6.058" height="18.943"/>
</g>
<g>
	<g>
		<rect x="325.691" y="24.882" fill="#ADADAD" width="5.461" height="5.918"/>
		<rect x="325.691" y="30.748" fill="#7A7A7A" width="5.423" height="12.536"/>
	</g>
	<rect x="325.435" y="24.649" fill="none" stroke="#1D1D1B" stroke-miterlimit="10" width="6.058" height="18.943"/>
</g>
<g>
	<g>
		<rect x="331.884" y="24.882" fill="#ADADAD" width="5.461" height="5.918"/>
		<rect x="331.884" y="30.748" fill="#7A7A7A" width="5.423" height="12.536"/>
	</g>
	<rect x="331.628" y="24.649" fill="none" stroke="#1D1D1B" stroke-miterlimit="10" width="6.058" height="18.943"/>
</g>
<g>
	<g>
		<rect x="338.078" y="24.882" fill="#ADADAD" width="5.461" height="5.918"/>
		<rect x="338.078" y="30.748" fill="#7A7A7A" width="5.423" height="12.536"/>
	</g>
	<rect x="337.822" y="24.649" fill="none" stroke="#1D1D1B" stroke-miterlimit="10" width="6.058" height="18.943"/>
</g>
<g>
	<g>
		<rect x="344.272" y="24.882" fill="#ADADAD" width="5.461" height="5.918"/>
		<rect x="344.272" y="30.748" fill="#7A7A7A" width="5.423" height="12.536"/>
	</g>
	<rect x="344.015" y="24.649" fill="none" stroke="#1D1D1B" stroke-miterlimit="10" width="6.058" height="18.943"/>
</g>
<g>
	<g>
		<rect x="376.207" y="24.882" fill="#ADADAD" width="5.461" height="5.918"/>
		<rect x="376.207" y="30.748" fill="#7A7A7A" width="5.423" height="12.536"/>
	</g>
	<rect x="375.951" y="24.649" fill="none" stroke="#1D1D1B" stroke-miterlimit="10" width="6.058" height="18.943"/>
</g>
<g>
	<g>
		<rect x="381.82" y="24.882" fill="#ADADAD" width="5.461" height="5.918"/>
		<rect x="381.82" y="30.748" fill="#7A7A7A" width="5.423" height="12.536"/>
	</g>
	<rect x="381.564" y="24.649" fill="none" stroke="#1D1D1B" stroke-miterlimit="10" width="6.058" height="18.943"/>
</g>
<g>
	<g>
		<rect x="388.207" y="24.882" fill="#ADADAD" width="5.461" height="5.918"/>
		<rect x="388.207" y="30.748" fill="#7A7A7A" width="5.423" height="12.536"/>
	</g>
	<rect x="387.951" y="24.649" fill="none" stroke="#1D1D1B" stroke-miterlimit="10" width="6.058" height="18.943"/>
</g>
<g>
	<g>
		<rect x="67.747" y="6.795" fill="#565656" stroke="#1D1D1B" stroke-miterlimit="10" width="7.244" height="97.58"/>
		<rect y="6.795" fill="#565656" stroke="#1D1D1B" stroke-miterlimit="10" width="7.244" height="97.58"/>
		<rect y="6.795" fill="#565656" stroke="#1D1D1B" stroke-miterlimit="10" width="7.244" height="97.58"/>
		<rect x="135.494" y="6.795" fill="#565656" stroke="#1D1D1B" stroke-miterlimit="10" width="7.244" height="97.58"/>
		<rect fill="#4E4E4E" stroke="#1D1D1B" stroke-miterlimit="10" width="142.738" height="7.355"/>
		<rect y="103.677" fill="#4E4E4E" stroke="#1D1D1B" stroke-miterlimit="10" width="142.738" height="7.355"/>
		<g>
			<rect x="74.969" y="21.603" fill="#3D3D3D" stroke="#1D1D1B" stroke-miterlimit="10" width="60.562" height="3.513"/>
			<rect x="74.969" y="43.087" fill="#3D3D3D" stroke="#1D1D1B" stroke-miterlimit="10" width="60.562" height="3.513"/>
			<rect x="74.969" y="64.571" fill="#3D3D3D" stroke="#1D1D1B" stroke-miterlimit="10" width="60.562" height="3.513"/>
			<rect x="74.969" y="86.054" fill="#3D3D3D" stroke="#1D1D1B" stroke-miterlimit="10" width="60.562" height="3.513"/>
		</g>
		<g>
			<rect x="7.2" y="21.603" fill="#3D3D3D" stroke="#1D1D1B" stroke-miterlimit="10" width="60.562" height="3.513"/>
			<rect x="7.2" y="43.087" fill="#3D3D3D" stroke="#1D1D1B" stroke-miterlimit="10" width="60.562" height="3.513"/>
			<rect x="7.2" y="64.571" fill="#3D3D3D" stroke="#1D1D1B" stroke-miterlimit="10" width="60.562" height="3.513"/>
			<rect x="7.2" y="86.054" fill="#3D3D3D" stroke="#1D1D1B" stroke-miterlimit="10" width="60.562" height="3.513"/>
		</g>
	</g>
	<g>
		<g>
			<rect x="23.235" y="24.882" fill="#ADADAD" width="5.461" height="5.918"/>
			<rect x="23.235" y="30.748" fill="#7A7A7A" width="5.423" height="12.536"/>
		</g>
		<rect x="22.979" y="24.649" fill="none" stroke="#1D1D1B" stroke-miterlimit="10" width="6.058" height="18.943"/>
	</g>
	<g>
		<g>
			<rect x="29.623" y="24.882" fill="#ADADAD" width="5.461" height="5.918"/>
			<rect x="29.623" y="30.748" fill="#7A7A7A" width="5.423" height="12.536"/>
		</g>
		<rect x="29.366" y="24.649" fill="none" stroke="#1D1D1B" stroke-miterlimit="10" width="6.058" height="18.943"/>
	</g>
	<g>
		<g>
			<rect x="35.623" y="24.882" fill="#ADADAD" width="5.461" height="5.918"/>
			<rect x="35.623" y="30.748" fill="#7A7A7A" width="5.423" height="12.536"/>
		</g>
		<rect x="35.366" y="24.649" fill="none" stroke="#1D1D1B" stroke-miterlimit="10" width="6.058" height="18.943"/>
	</g>
	<g>
		<g>
			<rect x="42.01" y="24.882" fill="#ADADAD" width="5.461" height="5.918"/>
			<rect x="42.01" y="30.748" fill="#7A7A7A" width="5.423" height="12.536"/>
		</g>
		<rect x="41.753" y="24.649" fill="none" stroke="#1D1D1B" stroke-miterlimit="10" width="6.058" height="18.943"/>
	</g>
	<g>
		<g>
			<rect x="47.623" y="24.882" fill="#ADADAD" width="5.461" height="5.918"/>
			<rect x="47.623" y="30.748" fill="#7A7A7A" width="5.423" height="12.536"/>
		</g>
		<rect x="47.366" y="24.649" fill="none" stroke="#1D1D1B" stroke-miterlimit="10" width="6.058" height="18.943"/>
	</g>
	<g>
		<g>
			<rect x="54.01" y="24.882" fill="#ADADAD" width="5.461" height="5.918"/>
			<rect x="54.01" y="30.748" fill="#7A7A7A" width="5.423" height="12.536"/>
		</g>
		<rect x="53.753" y="24.649" fill="none" stroke="#1D1D1B" stroke-miterlimit="10" width="6.058" height="18.943"/>
	</g>
	<g>
		<g>
			<rect x="85.945" y="24.882" fill="#ADADAD" width="5.461" height="5.918"/>
			<rect x="85.945" y="30.748" fill="#7A7A7A" width="5.423" height="12.536"/>
		</g>
		<rect x="85.689" y="24.649" fill="none" stroke="#1D1D1B" stroke-miterlimit="10" width="6.058" height="18.943"/>
	</g>
	<g>
		<g>
			<rect x="91.558" y="24.882" fill="#ADADAD" width="5.461" height="5.918"/>
			<rect x="91.558" y="30.748" fill="#7A7A7A" width="5.423" height="12.536"/>
		</g>
		<rect x="91.302" y="24.649" fill="none" stroke="#1D1D1B" stroke-miterlimit="10" width="6.058" height="18.943"/>
	</g>
	<g>
		<g>
			<rect x="97.945" y="24.882" fill="#ADADAD" width="5.461" height="5.918"/>
			<rect x="97.945" y="30.748" fill="#7A7A7A" width="5.423" height="12.536"/>
		</g>
		<rect x="97.689" y="24.649" fill="none" stroke="#1D1D1B" stroke-miterlimit="10" width="6.058" height="18.943"/>
	</g>
</g>
<g>
	<g>
		<rect x="117" y="111.451" fill="#CCCCCC" width="199" height="88.049"/>
		<path d="M315.5,111.951V199h-198v-87.049H315.5 M316.5,110.951h-200V200h200V110.951L316.5,110.951z"/>
	</g>
</g>
<rect x="185.5" y="48.317" fill="#565656" stroke="#1D1D1B" stroke-miterlimit="10" width="62" height="53.42"/>
<rect x="141.5" y="98.112" fill="#686868" stroke="#1D1D1B" stroke-miterlimit="10" width="150" height="36.517"/>
<rect x="141.5" y="134.629" fill="#565656" stroke="#1D1D1B" stroke-miterlimit="10" width="150" height="23.413"/>
<rect x="206.247" y="98" fill="#9A9A9A" stroke="#1D1D1B" stroke-miterlimit="10" width="19.656" height="8.024"/>
<line fill="none" stroke="#1D1D1B" stroke-miterlimit="10" x1="208.209" y1="104.08" x2="223.693" y2="104.08"/>
<line fill="none" stroke="#1D1D1B" stroke-miterlimit="10" x1="208.209" y1="100.135" x2="223.693" y2="100.135"/>
<line fill="none" stroke="#1D1D1B" stroke-miterlimit="10" x1="208.209" y1="102.135" x2="223.693" y2="102.135"/>
<line fill="none" stroke="#1D1D1B" stroke-miterlimit="10" x1="208.209" y1="100.204" x2="223.693" y2="100.204"/>
<g>
	<g>
		<rect x="316.788" y="46.358" fill="#ADADAD" width="5.461" height="5.918"/>
		<rect x="316.788" y="52.224" fill="#7A7A7A" width="5.423" height="12.536"/>
	</g>
	<rect x="316.532" y="46.125" fill="none" stroke="#1D1D1B" stroke-miterlimit="10" width="6.058" height="18.943"/>
</g>
<g>
	<g>
		<rect x="324.272" y="46.358" fill="#ADADAD" width="5.461" height="5.918"/>
		<rect x="324.272" y="52.224" fill="#7A7A7A" width="5.423" height="12.536"/>
	</g>
	<rect x="324.016" y="46.125" fill="none" stroke="#1D1D1B" stroke-miterlimit="10" width="6.058" height="18.943"/>
</g>
<g>
	<g>
		<rect x="331.757" y="46.358" fill="#ADADAD" width="5.461" height="5.918"/>
		<rect x="331.757" y="52.224" fill="#7A7A7A" width="5.423" height="12.536"/>
	</g>
	<rect x="331.501" y="46.125" fill="none" stroke="#1D1D1B" stroke-miterlimit="10" width="6.058" height="18.943"/>
</g>
<g>
	<g>
		<rect x="339.242" y="46.745" fill="#ADADAD" width="5.461" height="5.918"/>
		<rect x="339.242" y="52.611" fill="#7A7A7A" width="5.423" height="12.536"/>
	</g>
	<rect x="338.986" y="46.512" fill="none" stroke="#1D1D1B" stroke-miterlimit="10" width="6.058" height="18.943"/>
</g>
<g>
	<g>
		<rect x="346.727" y="46.745" fill="#ADADAD" width="5.461" height="5.918"/>
		<rect x="346.727" y="52.611" fill="#7A7A7A" width="5.423" height="12.536"/>
	</g>
	<rect x="346.47" y="46.512" fill="none" stroke="#1D1D1B" stroke-miterlimit="10" width="6.058" height="18.943"/>
</g>
<g>
	<g>
		<rect x="375.565" y="67.648" fill="#ADADAD" width="5.461" height="5.918"/>
		<rect x="375.565" y="73.515" fill="#7A7A7A" width="5.423" height="12.536"/>
	</g>
	<rect x="375.309" y="67.415" fill="none" stroke="#1D1D1B" stroke-miterlimit="10" width="6.058" height="18.943"/>
</g>
<g>
	<g>
		<rect x="387.178" y="67.648" fill="#ADADAD" width="5.461" height="5.918"/>
		<rect x="387.178" y="73.515" fill="#7A7A7A" width="5.423" height="12.536"/>
	</g>
	<rect x="386.922" y="67.415" fill="none" stroke="#1D1D1B" stroke-miterlimit="10" width="6.058" height="18.943"/>
</g>
<g>
	<g>
		<rect x="399.952" y="67.648" fill="#ADADAD" width="5.461" height="5.918"/>
		<rect x="399.952" y="73.515" fill="#7A7A7A" width="5.423" height="12.536"/>
	</g>
	<rect x="399.696" y="67.415" fill="none" stroke="#1D1D1B" stroke-miterlimit="10" width="6.058" height="18.943"/>
</g>
<g>
	<g>
		<rect x="406.533" y="67.648" fill="#ADADAD" width="5.461" height="5.918"/>
		<rect x="406.533" y="73.515" fill="#7A7A7A" width="5.423" height="12.536"/>
	</g>
	<rect x="406.277" y="67.415" fill="none" stroke="#1D1D1B" stroke-miterlimit="10" width="6.058" height="18.943"/>
</g>
<g>
	<g>
		<rect x="412.726" y="67.648" fill="#ADADAD" width="5.461" height="5.918"/>
		<rect x="412.726" y="73.515" fill="#7A7A7A" width="5.423" height="12.536"/>
	</g>
	<rect x="412.47" y="67.415" fill="none" stroke="#1D1D1B" stroke-miterlimit="10" width="6.058" height="18.943"/>
</g>
<g>
	<g>
		<rect x="324.243" y="7.388" fill="#ADADAD" width="5.461" height="4.531"/>
		<rect x="324.243" y="11.879" fill="#7A7A7A" width="5.423" height="9.598"/>
	</g>
	<rect x="323.987" y="7.209" fill="none" stroke="#1D1D1B" stroke-miterlimit="10" width="6.058" height="14.504"/>
</g>
<g>
	<g>
		<rect x="330.493" y="7.388" fill="#ADADAD" width="5.461" height="4.531"/>
		<rect x="330.493" y="11.879" fill="#7A7A7A" width="5.423" height="9.598"/>
	</g>
	<rect x="330.237" y="7.209" fill="none" stroke="#1D1D1B" stroke-miterlimit="10" width="6.058" height="14.504"/>
</g>
<g>
	<g>
		<rect x="336.743" y="7.388" fill="#ADADAD" width="5.461" height="4.531"/>
		<rect x="336.743" y="11.879" fill="#7A7A7A" width="5.423" height="9.598"/>
	</g>
	<rect x="336.487" y="7.209" fill="none" stroke="#1D1D1B" stroke-miterlimit="10" width="6.058" height="14.504"/>
</g>
<g>
	<g>
		<rect x="342.993" y="7.388" fill="#ADADAD" width="5.461" height="4.531"/>
		<rect x="342.993" y="11.879" fill="#7A7A7A" width="5.423" height="9.598"/>
	</g>
	<rect x="342.737" y="7.209" fill="none" stroke="#1D1D1B" stroke-miterlimit="10" width="6.058" height="14.504"/>
</g>
<g>
	<g>
		<rect x="349.243" y="7.388" fill="#ADADAD" width="5.461" height="4.531"/>
		<rect x="349.243" y="11.879" fill="#7A7A7A" width="5.423" height="9.598"/>
	</g>
	<rect x="348.986" y="7.209" fill="none" stroke="#1D1D1B" stroke-miterlimit="10" width="6.058" height="14.504"/>
</g>
<g>
	<g>
		<rect x="374.017" y="7.104" fill="#ADADAD" width="5.461" height="4.531"/>
		<rect x="374.017" y="11.595" fill="#7A7A7A" width="5.423" height="9.598"/>
	</g>
	<rect x="373.761" y="6.925" fill="none" stroke="#1D1D1B" stroke-miterlimit="10" width="6.058" height="14.504"/>
</g>
<g>
	<g>
		<rect x="384.856" y="7.104" fill="#ADADAD" width="5.461" height="4.531"/>
		<rect x="384.856" y="11.595" fill="#7A7A7A" width="5.423" height="9.598"/>
	</g>
	<rect x="384.599" y="6.925" fill="none" stroke="#1D1D1B" stroke-miterlimit="10" width="6.058" height="14.504"/>
</g>
<g>
	<g>
		<rect x="394.146" y="7.104" fill="#ADADAD" width="5.461" height="4.531"/>
		<rect x="394.146" y="11.595" fill="#7A7A7A" width="5.423" height="9.598"/>
	</g>
	<rect x="393.89" y="6.925" fill="none" stroke="#1D1D1B" stroke-miterlimit="10" width="6.058" height="14.504"/>
</g>
<g>
	<g>
		<rect x="402.275" y="7.104" fill="#ADADAD" width="5.461" height="4.531"/>
		<rect x="402.275" y="11.595" fill="#7A7A7A" width="5.423" height="9.598"/>
	</g>
	<rect x="402.019" y="6.925" fill="none" stroke="#1D1D1B" stroke-miterlimit="10" width="6.058" height="14.504"/>
</g>
<g>
	<g>
		<rect x="413.307" y="7.104" fill="#ADADAD" width="5.461" height="4.531"/>
		<rect x="413.307" y="11.595" fill="#7A7A7A" width="5.423" height="9.598"/>
	</g>
	<rect x="413.051" y="6.925" fill="none" stroke="#1D1D1B" stroke-miterlimit="10" width="6.058" height="14.504"/>
</g>
<g>
	<g>
		<rect x="310.727" y="88.781" fill="#ADADAD" width="5.461" height="4.531"/>
		<rect x="310.727" y="93.273" fill="#7A7A7A" width="5.423" height="9.598"/>
	</g>
	<rect x="310.47" y="88.603" fill="none" stroke="#1D1D1B" stroke-miterlimit="10" width="6.058" height="14.504"/>
</g>
<g>
	<g>
		<rect x="317.114" y="88.781" fill="#ADADAD" width="5.461" height="4.531"/>
		<rect x="317.114" y="93.273" fill="#7A7A7A" width="5.423" height="9.598"/>
	</g>
	<rect x="316.858" y="88.603" fill="none" stroke="#1D1D1B" stroke-miterlimit="10" width="6.058" height="14.504"/>
</g>
<g>
	<g>
		<rect x="329.888" y="88.781" fill="#ADADAD" width="5.461" height="4.531"/>
		<rect x="329.888" y="93.273" fill="#7A7A7A" width="5.423" height="9.598"/>
	</g>
	<rect x="329.632" y="88.603" fill="none" stroke="#1D1D1B" stroke-miterlimit="10" width="6.058" height="14.504"/>
</g>
<g>
	<g>
		<rect x="336.275" y="88.781" fill="#ADADAD" width="5.461" height="4.531"/>
		<rect x="336.275" y="93.273" fill="#7A7A7A" width="5.423" height="9.598"/>
	</g>
	<rect x="336.019" y="88.603" fill="none" stroke="#1D1D1B" stroke-miterlimit="10" width="6.058" height="14.504"/>
</g>
<g>
	<g>
		
			<rect x="350.332" y="90.933" transform="matrix(0.7071 0.7071 -0.7071 0.7071 169.3113 -222.3555)" fill="#ADADAD" width="5.461" height="4.531"/>
		
			<rect x="345.37" y="93.354" transform="matrix(0.7071 0.7071 -0.7071 0.7071 171.3557 -217.3826)" fill="#7A7A7A" width="5.423" height="9.598"/>
	</g>
	
		<rect x="346.664" y="89.377" transform="matrix(0.7071 0.7071 -0.7071 0.7071 170.7495 -218.9683)" fill="none" stroke="#1D1D1B" stroke-miterlimit="10" width="6.058" height="14.504"/>
</g>
<g>
	<g>
		
			<rect x="411.855" y="90.606" transform="matrix(0.7071 -0.7071 0.7071 0.7071 55.7589 320.3579)" fill="#ADADAD" width="5.461" height="4.531"/>
		
			<rect x="416.828" y="93.054" transform="matrix(0.7071 -0.7071 0.7071 0.7071 53.6882 325.3199)" fill="#7A7A7A" width="5.423" height="9.598"/>
	</g>
	
		<rect x="414.986" y="88.99" transform="matrix(0.7071 -0.7071 0.7071 0.7071 54.3808 323.77)" fill="none" stroke="#1D1D1B" stroke-miterlimit="10" width="6.058" height="14.504"/>
</g>
<g>
	<g>
		<rect x="374.21" y="89.168" fill="#ADADAD" width="5.461" height="4.531"/>
		<rect x="374.21" y="93.66" fill="#7A7A7A" width="5.423" height="9.598"/>
	</g>
	<rect x="373.954" y="88.99" fill="none" stroke="#1D1D1B" stroke-miterlimit="10" width="6.058" height="14.504"/>
</g>
<g>
	<g>
		<rect x="380.21" y="89.168" fill="#ADADAD" width="5.461" height="4.531"/>
		<rect x="380.21" y="93.66" fill="#7A7A7A" width="5.423" height="9.598"/>
	</g>
	<rect x="379.954" y="88.99" fill="none" stroke="#1D1D1B" stroke-miterlimit="10" width="6.058" height="14.504"/>
</g>
<g>
	<g>
		<rect x="392.017" y="89.168" fill="#ADADAD" width="5.461" height="4.531"/>
		<rect x="392.017" y="93.66" fill="#7A7A7A" width="5.423" height="9.598"/>
	</g>
	<rect x="391.761" y="88.99" fill="none" stroke="#1D1D1B" stroke-miterlimit="10" width="6.058" height="14.504"/>
</g>
<g>
	<g>
		<rect x="403.63" y="89.168" fill="#ADADAD" width="5.461" height="4.531"/>
		<rect x="403.63" y="93.66" fill="#7A7A7A" width="5.423" height="9.598"/>
	</g>
	<rect x="403.373" y="88.99" fill="none" stroke="#1D1D1B" stroke-miterlimit="10" width="6.058" height="14.504"/>
</g>
<g>
	<g>
		<rect x="320.888" y="68.205" fill="#ADADAD" width="5.461" height="5.62"/>
		<rect x="320.888" y="73.775" fill="#7A7A7A" width="5.423" height="11.904"/>
	</g>
	<rect x="320.632" y="67.984" fill="none" stroke="#1D1D1B" stroke-miterlimit="10" width="6.058" height="17.988"/>
</g>
<g>
	<g>
		<rect x="332.501" y="68.205" fill="#ADADAD" width="5.461" height="5.62"/>
		<rect x="332.501" y="73.775" fill="#7A7A7A" width="5.423" height="11.904"/>
	</g>
	<rect x="332.245" y="67.984" fill="none" stroke="#1D1D1B" stroke-miterlimit="10" width="6.058" height="17.988"/>
</g>
<g>
	<g>
		<rect x="299.598" y="68.114" fill="#ADADAD" width="5.461" height="5.62"/>
		<rect x="299.598" y="73.685" fill="#7A7A7A" width="5.423" height="11.904"/>
	</g>
	<rect x="299.341" y="67.893" fill="none" stroke="#1D1D1B" stroke-miterlimit="10" width="6.058" height="17.988"/>
</g>
<g>
	<g>
		<rect x="311.211" y="68.114" fill="#ADADAD" width="5.461" height="5.62"/>
		<rect x="311.211" y="73.685" fill="#7A7A7A" width="5.423" height="11.904"/>
	</g>
	<rect x="310.954" y="67.893" fill="none" stroke="#1D1D1B" stroke-miterlimit="10" width="6.058" height="17.988"/>
</g>
<g>
	<g>
		<rect x="396.723" y="46.521" fill="#ADADAD" width="5.461" height="5.559"/>
		<rect x="396.723" y="52.031" fill="#7A7A7A" width="5.423" height="11.776"/>
	</g>
	<rect x="396.467" y="46.302" fill="none" stroke="#1D1D1B" stroke-miterlimit="10" width="6.058" height="17.794"/>
</g>
<g>
	<g>
		<rect x="403.304" y="46.521" fill="#ADADAD" width="5.461" height="5.559"/>
		<rect x="403.304" y="52.031" fill="#7A7A7A" width="5.423" height="11.776"/>
	</g>
	<rect x="403.047" y="46.302" fill="none" stroke="#1D1D1B" stroke-miterlimit="10" width="6.058" height="17.794"/>
</g>
<g>
	<g>
		
			<rect x="419.487" y="48.605" transform="matrix(0.7071 0.7071 -0.7071 0.7071 159.9993 -283.5023)" fill="#ADADAD" width="5.461" height="5.559"/>
		
			<rect x="413.398" y="51.578" transform="matrix(0.7071 0.7071 -0.7071 0.7071 162.5105 -277.4026)" fill="#7A7A7A" width="5.423" height="11.776"/>
	</g>
	
		<rect x="415.047" y="46.689" transform="matrix(0.7071 0.7071 -0.7071 0.7071 161.7569 -279.344)" fill="none" stroke="#1D1D1B" stroke-miterlimit="10" width="6.058" height="17.794"/>
</g>
<g>
	<g>
		<rect x="299.469" y="7.388" fill="#ADADAD" width="5.461" height="4.531"/>
		<rect x="299.469" y="11.879" fill="#7A7A7A" width="5.423" height="9.598"/>
	</g>
	<rect x="299.212" y="7.209" fill="none" stroke="#1D1D1B" stroke-miterlimit="10" width="6.058" height="14.504"/>
</g>
<g>
	<g>
		<rect x="305.719" y="7.388" fill="#ADADAD" width="5.461" height="4.531"/>
		<rect x="305.719" y="11.879" fill="#7A7A7A" width="5.423" height="9.598"/>
	</g>
	<rect x="305.462" y="7.209" fill="none" stroke="#1D1D1B" stroke-miterlimit="10" width="6.058" height="14.504"/>
</g>
<g>
	<g>
		<rect x="311.969" y="7.388" fill="#ADADAD" width="5.461" height="4.531"/>
		<rect x="311.969" y="11.879" fill="#7A7A7A" width="5.423" height="9.598"/>
	</g>
	<rect x="311.712" y="7.209" fill="none" stroke="#1D1D1B" stroke-miterlimit="10" width="6.058" height="14.504"/>
</g>
<g>
	<g>
		<rect x="318.219" y="7.388" fill="#ADADAD" width="5.461" height="4.531"/>
		<rect x="318.219" y="11.879" fill="#7A7A7A" width="5.423" height="9.598"/>
	</g>
	<rect x="317.962" y="7.209" fill="none" stroke="#1D1D1B" stroke-miterlimit="10" width="6.058" height="14.504"/>
</g>
<g>
	<rect x="163.5" y="107.106" fill="#777777" stroke="#000000" stroke-miterlimit="10" width="15.097" height="17.2"/>
	<g>
		<rect x="166.016" y="112.113" fill="none" width="10.645" height="7.161"/>
		<path d="M170.149,112.866v2.27h-0.757v0.757h-2.271v1.514h-0.756v-5.297h3.026v0.757H170.149z M169.393,113.623h-0.757v-0.757
			h-1.514v2.27h1.514v-0.756h0.757V113.623z"/>
		<path d="M170.847,113.622v-1.513h3.026v0.756h-2.271v0.757H170.847z M170.847,117.406v-2.271h0.756v-0.757h1.514v-0.757h0.757
			v-0.757h0.757v1.514h-0.757v0.757h-1.514v0.757h-0.757v0.757h3.027v0.757H170.847z"/>
	</g>
	<rect x="163.5" y="124.306" fill="#999999" stroke="#000000" stroke-miterlimit="10" width="15.097" height="3.966"/>
</g>
<g>
	<rect x="255.051" y="101.467" fill="#777777" stroke="#000000" stroke-miterlimit="10" width="22.744" height="20.628"/>
	<g>
		<rect x="257.372" y="109.096" fill="none" width="22.512" height="8.589"/>
		<path d="M260.845,111.426v0.778h-2.334v1.556h2.334v0.778h-3.112v-5.447h3.112v0.778h-2.334v1.557H260.845z M260.845,111.426
			v-1.557h0.778v1.557H260.845z M260.845,113.76v-1.556h0.778v1.556H260.845z"/>
		<path d="M266.229,109.091v0.778h-1.557v4.669h-0.778v-4.669h-1.556v-0.778H266.229z"/>
		<path d="M270.056,110.647v-0.778h-2.334v3.891h2.334v-0.778h0.778v1.557h-3.891v-5.447h3.891v1.557H270.056z"/>
		<path d="M275.439,109.869v4.669h-0.778v-1.557h-2.334v1.557h-0.778v-4.669h0.778v-0.778h2.334v0.778H275.439z M274.661,110.647
			h-0.778v-0.778h-0.778v0.778h-0.777v1.557h2.334V110.647z"/>
	</g>
	<rect x="255.051" y="122.095" fill="#999999" stroke="#000000" stroke-miterlimit="10" width="22.744" height="4.757"/>
</g>
</svg>
