<?xml version="1.0" encoding="utf-8"?>
<!-- Generator: Adobe Illustrator 26.0.3, SVG Export Plug-In . SVG Version: 6.00 Build 0)  -->
<svg version="1.1" id="Layer_1" xmlns="http://www.w3.org/2000/svg" xmlns:xlink="http://www.w3.org/1999/xlink" x="0px" y="0px"
	 width="18px" height="170px" viewBox="0 0 18 170" style="enable-background:new 0 0 18 170;" xml:space="preserve">
<style type="text/css">
	.st0{fill:#C6C6C6;}
	.st1{fill:#ADADAD;}
	.st2{fill:#F6F6F6;}
	.st3{fill:#8E8E8E;}
	.st4{fill:#D6D6D6;}
	.st5{fill:#E6E6E6;}
	.st6{fill:#CDCDCD;}
</style>
<polygon points="9.5,0 9.5,2 16.1,2 16.1,9 18,9 18,161 16.1,161 16.1,168 9.5,168 9.5,170 0,170 0,0 "/>
<polygon class="st0" points="4.4,4 4.4,14 14,14 14,156 4.4,156 4.4,166 0,166 0,4 "/>
<rect y="6" class="st1" width="12" height="158"/>
<rect y="10" class="st2" width="8" height="150"/>
<rect y="14" class="st3" width="8" height="142"/>
<rect y="18" class="st4" width="4" height="134"/>
<rect y="19.5" class="st0" width="4" height="131"/>
<g>
	<rect x="0" y="152" transform="matrix(-1 -4.486867e-11 4.486867e-11 -1 12 316)" class="st2" width="12" height="12"/>
	<rect x="0" y="152" transform="matrix(-1 -4.456536e-11 4.456536e-11 -1 4 312)" class="st5" width="4" height="8"/>
	<rect x="4" y="152" transform="matrix(-1 -4.502011e-11 4.502011e-11 -1 12 308)" class="st6" width="4" height="4"/>
	<rect x="4" y="156" transform="matrix(-1 -4.502011e-11 4.502011e-11 -1 12 316)" width="4" height="4"/>
</g>
<rect x="8" y="17.8" transform="matrix(-1 -4.502011e-11 4.502011e-11 -1 20 170.2587)" class="st2" width="4" height="134.6"/>
<g>
	<rect x="0" y="6" transform="matrix(-1 -1.224647e-16 1.224647e-16 -1 12 24)" class="st2" width="12" height="12"/>
	<rect x="0" y="10" transform="matrix(-1 4.546249e-13 -4.546249e-13 -1 4 28)" class="st5" width="4" height="8"/>
	<rect x="4" y="14" transform="matrix(-1 -4.548698e-13 4.548698e-13 -1 12 32)" class="st6" width="4" height="4"/>
	<rect x="4" y="10" transform="matrix(-1 -4.548698e-13 4.548698e-13 -1 12 24)" width="4" height="4"/>
</g>
</svg>
