<?xml version="1.0" encoding="iso-8859-1"?>
<!-- Generator: Adobe Illustrator 26.0.3, SVG Export Plug-In . SVG Version: 6.00 Build 0)  -->
<svg version="1.1" id="Layer_1" xmlns="http://www.w3.org/2000/svg" xmlns:xlink="http://www.w3.org/1999/xlink" x="0px" y="0px"
	 width="104px" height="104px" viewBox="0 0 104 104" enable-background="new 0 0 104 104" xml:space="preserve">
<g>
	<g>
		<path fill="#FFFFFF" d="M48.28,31.862V56.03h-8.056v8.056H16.056v16.112H8V23.806h32.224v8.056H48.28z M40.224,39.918h-8.055
			v-8.056H16.056V56.03h16.113v-8.056h8.055V39.918z"/>
		<path fill="#FFFFFF" d="M55.72,39.914V23.802h32.224v8.056H63.776v8.056H55.72z M55.72,80.194V56.026h8.056V47.97h16.113v-8.056
			h8.055v-8.056H96V47.97h-8.056v8.056H71.832v8.056h-8.056v8.056H96v8.055H55.72z"/>
	</g>
	<g>
		<rect fill="#C7C7C7" width="8" height="8"/>
		<rect x="16" fill="#C7C7C7" width="8" height="8"/>
		<rect x="32" fill="#C7C7C7" width="8" height="8"/>
		<rect x="8" y="8" fill="#C7C7C7" width="8" height="8"/>
		<rect x="24" y="8" fill="#C7C7C7" width="8" height="8"/>
		<rect x="40" y="8" fill="#C7C7C7" width="8" height="8"/>
	</g>
	<g>
		<rect x="64" y="88" fill="#C7C7C7" width="8" height="8"/>
		<rect x="80" y="88" fill="#C7C7C7" width="8" height="8"/>
		<rect x="96" y="88" fill="#C7C7C7" width="8" height="8"/>
		<rect x="56" y="96" fill="#C7C7C7" width="8" height="8"/>
		<rect x="72" y="96" fill="#C7C7C7" width="8" height="8"/>
		<rect x="88" y="96" fill="#C7C7C7" width="8" height="8"/>
	</g>
</g>
<g>
</g>
<g>
</g>
<g>
</g>
<g>
</g>
<g>
</g>
<g>
</g>
<g>
</g>
<g>
</g>
<g>
</g>
<g>
</g>
<g>
</g>
<g>
</g>
<g>
</g>
<g>
</g>
<g>
</g>
</svg>
