<?xml version="1.0" encoding="utf-8"?>
<!-- Generator: Adobe Illustrator 27.0.1, SVG Export Plug-In . SVG Version: 6.00 Build 0)  -->
<svg version="1.1" id="Layer_1" xmlns="http://www.w3.org/2000/svg" xmlns:xlink="http://www.w3.org/1999/xlink" x="0px" y="0px"
	 viewBox="0 0 623 172.1" style="enable-background:new 0 0 623 172.1;" xml:space="preserve">
<g>
	<path d="M0,0h43.4v19.2H19.2v57.2h24.2v19.2H19.2v57.2h24.2V172H0V0z"/>
	<path d="M67.2,0h19.2v152.8h19.2V172H67.2V0z"/>
	<path d="M125.8,0h43.4v19.2H145v57.2h24.2v19.2H145v57.2h24.2V172h-43.4C125.8,172,125.8,0,125.8,0z"/>
	<path d="M193,0h27.2l13.2,106.6L246.7,0h27.2v172.1h-17.2V47.7l-14.5,124.4h-17.5L210,47.7v124.4h-17V0z"/>
	<path d="M299.1,0h43.4v19.2h-24.2v57.2h24.2v19.2h-24.2v57.2h24.2V172h-43.4V0z"/>
	<path d="M366.3,0h13.5l25,93.2V0H424v172.1h-13.7l-24.7-90.7v90.7h-19.2L366.3,0L366.3,0z"/>
	<path d="M459.2,19.2h-15V0h49.2v19.2h-15V172h-19.2V19.2z"/>
	<path d="M520.4,0h24.7l19.2,172.1h-18l-3.5-36h-20l-3.7,36h-18L520.4,0z M540.4,116.9L532.9,25l-7.5,91.9H540.4z"/>
	<path d="M584.5,0h19.2v152.8H623V172h-38.5V0z"/>
</g>
</svg>
