<?xml version="1.0" encoding="utf-8"?>
<!-- Generator: Adobe Illustrator 26.3.1, SVG Export Plug-In . SVG Version: 6.00 Build 0)  -->
<svg version="1.1" id="Layer_1" xmlns="http://www.w3.org/2000/svg" xmlns:xlink="http://www.w3.org/1999/xlink" x="0px" y="0px"
	 viewBox="0 0 623 244" style="enable-background:new 0 0 623 244;" xml:space="preserve">
<g>
	<g>
		<path d="M0,0h43.4v19.2H19.2v57.2h24.2v19.2H19.2v57.2h24.2v19.2H0V0z"/>
		<path d="M67.2,0h19.2v152.8h19.2v19.2H67.2V0z"/>
		<path d="M125.8,0h43.4v19.2h-24.2v57.2h24.2v19.2h-24.2v57.2h24.2v19.2h-43.4V0z"/>
		<path d="M193,0h27.2l13.2,106.6L246.7,0h27.2v172.1h-17.2V47.7l-14.5,124.4h-17.5L210,47.7v124.4h-17V0z"/>
		<path d="M299.1,0h43.4v19.2h-24.2v57.2h24.2v19.2h-24.2v57.2h24.2v19.2h-43.4V0z"/>
		<path d="M366.3,0h13.5l25,93.2V0H424v172.1h-13.7l-24.7-90.7v90.7h-19.2V0z"/>
		<path d="M459.2,19.2h-15V0h49.2v19.2h-15v152.8h-19.2V19.2z"/>
		<path d="M520.4,0h24.7l19.2,172.1h-18l-3.5-36h-20l-3.7,36h-18L520.4,0z M540.4,116.9L532.9,25l-7.5,91.9H540.4z"/>
		<path d="M584.5,0h19.2v152.8H623v19.2h-38.5V0z"/>
	</g>
	<g>
		<path d="M13.8,223.2c-2,2.4-5.3,2.5-7,2.5h-4v17.7H0v-38.9h6.2c2.4,0,5.1-0.1,7.1,1.5c2.1,1.7,2.1,4.2,2.1,7.1v4.4
			C15.4,219.7,15.3,221.4,13.8,223.2z M12.7,214.2c0-3.5-0.1-5.3-1.6-6.5c-1-0.8-1.9-0.9-4.2-0.9H2.7v16.6h4.5
			c1.5,0,3.1-0.2,4.3-1.4c1.5-1.5,1.3-4.1,1.3-4.5V214.2z"/>
		<path d="M38.2,243.4l-2-11.8h-8.3l-2.1,11.8h-2.9l7.2-39.1H34l7.2,39.1H38.2z M32.6,211c-0.2-1.2-0.4-2.4-0.6-3.6
			c-0.1,1.2-0.3,2.3-0.4,3.4L28.4,229h7.3L32.6,211z"/>
		<path d="M65.5,241.1c-1,1.4-2.9,2.9-6.7,2.9c-1.5,0-3.3-0.3-4.5-0.9c-0.3-0.2-0.7-0.4-1.3-0.9c-0.9-0.8-1.5-1.7-2-2.8
			c-0.4-1.1-0.4-2-0.4-3.1v-5.5h2.7v3.1c0,0.8-0.1,1.6,0,2.4c0.1,1.9,0.7,5.4,5.8,5.4c0.4,0,1.7,0,2.9-0.7c1.4-0.8,2.2-2.5,2.2-5.7
			c0-3-0.7-4.4-1.4-5.6c-1.5-2.2-4.1-4.7-4.5-5c-2.3-2.2-3.7-3.7-4.5-4.9c-1-1.3-2.2-3.5-2.2-7.2c0-0.2,0-1.8,0.2-2.9
			c0.4-2.2,1.7-5.7,7.2-5.7c0.6,0,2.9,0,4.6,1.1c2.7,1.8,2.7,5.1,2.7,7.9v2.8h-2.7v-3.5c0-1.4,0-1.8-0.2-2.6
			c-0.2-1.3-1.1-3.4-4.5-3.4c-0.4,0-1.7,0-2.8,0.7c-1.2,0.8-2,2.3-2,5.2c0,3.7,1,5.2,3.4,7.9c0.8,1,1.7,1.9,2.7,2.9
			c1.4,1.4,2.8,2.7,4,4.2c2,2.4,2.5,4.6,2.5,7.7C66.9,238.1,66.2,240,65.5,241.1z"/>
		<path d="M92,241.1c-1,1.4-2.9,2.9-6.7,2.9c-1.5,0-3.3-0.3-4.5-0.9c-0.3-0.2-0.7-0.4-1.3-0.9c-0.9-0.8-1.5-1.7-2-2.8
			c-0.4-1.1-0.4-2-0.4-3.1v-5.5h2.7v3.1c0,0.8-0.1,1.6,0,2.4c0.1,1.9,0.7,5.4,5.8,5.4c0.4,0,1.7,0,2.9-0.7c1.4-0.8,2.2-2.5,2.2-5.7
			c0-3-0.7-4.4-1.4-5.6c-1.5-2.2-4.1-4.7-4.5-5c-2.3-2.2-3.7-3.7-4.5-4.9c-1-1.3-2.2-3.5-2.2-7.2c0-0.2,0-1.8,0.2-2.9
			c0.4-2.2,1.7-5.7,7.2-5.7c0.6,0,2.9,0,4.6,1.1c2.7,1.8,2.7,5.1,2.7,7.9v2.8h-2.7v-3.5c0-1.4,0-1.8-0.2-2.6
			c-0.2-1.3-1.1-3.4-4.5-3.4c-0.4,0-1.7,0-2.8,0.7c-1.2,0.8-2,2.3-2,5.2c0,3.7,1,5.2,3.4,7.9c0.8,1,1.7,1.9,2.7,2.9
			c1.4,1.4,2.8,2.7,4,4.2c2,2.4,2.5,4.6,2.5,7.7C93.4,238.1,92.8,240,92,241.1z"/>
		<path d="M104.6,243.4v-38.9h2.9v38.9H104.6z"/>
		<path d="M127.3,243.4h-2.9l-6.7-38.9h2.9l5.3,33.1l5.8-33.1h2.8L127.3,243.4z"/>
		<path d="M147.6,207v15h9.3v2.4h-9.3V241h11.2v2.4H145v-38.9h14v2.4H147.6z"/>
		<path d="M185.2,243.4v-38.9h2.9v38.9H185.2z"/>
		<path d="M211.5,243.4l-9.2-36.7l0.2,36.7h-2.6v-38.9h4l9.5,37.4l-0.4-37.4h2.7v38.9H211.5z"/>
		<path d="M242.8,239.7c-0.7,2-2.7,4.3-7.6,4.3c-4.7,0-6.6-3.1-7.2-4.7c-0.4-1.2-0.6-2.3-0.6-4.7v-21.1c0-2.4-0.1-4.5,1.5-6.4
			c1.6-2.1,3.9-2.9,6.4-2.9c3,0,5.8,1.2,6.9,4c0.6,1.4,0.6,3.1,0.6,3.5v5.4h-2.7v-2.6c0-2.9-0.1-4.5-0.7-5.8
			c-0.2-0.3-0.6-0.9-1.5-1.4c-0.5-0.3-1.2-0.7-2.6-0.7c-0.5,0-1.7,0.1-2.9,0.8c-2.5,1.5-2.4,4.7-2.4,5.3v19.2c0,2.1-0.2,5.4,1,7.3
			c0.4,0.7,1,1.2,1.6,1.6c1.2,0.6,2.3,0.7,2.9,0.7c1.2,0,2-0.3,2.5-0.6c2.5-1.3,2.4-4,2.4-4.7V230h2.8v6
			C243.3,237.9,243.1,238.7,242.8,239.7z"/>
		<path d="M269,240.5c-0.8,1.4-2.9,3.4-6.9,3.4c-0.8,0-4.2-0.1-6.2-2.4c-1.6-1.9-1.7-4.1-1.7-6.4v-21.9c0-0.4,0-2.6,0.6-4.4
			c1.1-3.2,4.2-4.7,7.6-4.7c1.8,0,3.6,0.4,5,1.4c2.8,2.1,2.8,5.4,2.8,8.5v21.5C270.2,237.3,270,238.9,269,240.5z M267.6,215.5
			c0-3.2-0.2-5.1-1-6.5c-0.2-0.4-0.7-1.3-1.8-1.8c-0.4-0.2-1.3-0.6-2.6-0.6c-1.6,0-2.6,0.6-3,0.8c-2.4,1.5-2.3,4.6-2.3,5.3V234
			c0,2.2,0.1,3.4,0.4,4.4c0.4,1,1.8,3,4.9,3c1.1,0,2.2-0.3,3.1-0.9c2.1-1.5,2.2-3.9,2.2-6.1V215.5z"/>
		<path d="M301.2,243.4l-0.1-35.9l-7,35.9h-2.5l-7-35.9l0.1,35.9H282l0.3-38.9h4l6.5,33.5l6.5-33.5h4l0.4,38.9H301.2z"/>
		<path d="M318.5,207v15h9.3v2.4h-9.3V241h11.2v2.4h-13.9v-38.9h14v2.4H318.5z"/>
		<path d="M375.1,243.4l-0.1-35.9l-7,35.9h-2.5l-7-35.9l0.1,35.9h-2.7l0.3-38.9h4l6.5,33.5l6.5-33.5h4l0.4,38.9H375.1z"/>
		<path d="M403,243.4l-2-11.8h-8.3l-2.1,11.8h-2.9l7.2-39.1h3.8l7.2,39.1H403z M397.4,211c-0.2-1.2-0.4-2.4-0.6-3.6
			c-0.1,1.2-0.3,2.3-0.4,3.4l-3.2,18.3h7.3L397.4,211z"/>
		<path d="M432,232.6c-0.2,3.3-0.8,6.3-3.5,8.5c-0.6,0.5-2,1.5-3.9,2c-1.3,0.3-2.9,0.3-3.1,0.3h-5.2v-38.9h3.4
			c3.6,0,7.2,0.3,9.7,3.2c2.2,2.6,2.7,6.1,2.7,12.7v8.6C432.1,230.2,432.1,231.3,432,232.6z M429.4,220.4c0-2.8-0.1-7.4-1.4-9.9
			c-1.2-2.1-3.3-2.9-4.1-3.1c-1.1-0.3-2.5-0.4-2.8-0.4H419v34h2.2c1.8,0,3.3-0.3,4.9-1.3c2.6-1.8,3.2-4.7,3.2-10.3V220.4z"/>
		<path d="M446.7,207v15h9.3v2.4h-9.3V241h11.2v2.4H444v-38.9h14v2.4H446.7z"/>
		<path d="M498.2,241.1c-1,1.4-2.9,2.9-6.7,2.9c-1.5,0-3.3-0.3-4.5-0.9c-0.3-0.2-0.7-0.4-1.3-0.9c-0.9-0.8-1.5-1.7-2-2.8
			c-0.4-1.1-0.4-2-0.4-3.1v-5.5h2.7v3.1c0,0.8-0.1,1.6,0,2.4c0.1,1.9,0.7,5.4,5.8,5.4c0.4,0,1.7,0,2.9-0.7c1.4-0.8,2.2-2.5,2.2-5.7
			c0-3-0.7-4.4-1.4-5.6c-1.5-2.2-4.1-4.7-4.5-5c-2.3-2.2-3.7-3.7-4.5-4.9c-1-1.3-2.2-3.5-2.2-7.2c0-0.2,0-1.8,0.2-2.9
			c0.4-2.2,1.7-5.7,7.2-5.7c0.6,0,2.9,0,4.6,1.1c2.7,1.8,2.7,5.1,2.7,7.9v2.8h-2.7v-3.5c0-1.4,0-1.8-0.2-2.6
			c-0.2-1.3-1.1-3.4-4.5-3.4c-0.4,0-1.7,0-2.8,0.7c-1.2,0.8-2,2.3-2,5.2c0,3.7,1,5.2,3.4,7.9c0.8,1,1.7,1.9,2.7,2.9
			c1.4,1.4,2.8,2.7,4,4.2c2,2.4,2.5,4.6,2.5,7.7C499.6,238.1,499,240,498.2,241.1z"/>
		<path d="M510.8,243.4v-38.9h2.9v38.9H510.8z"/>
		<path d="M544.7,243.4l-0.1-35.9l-7,35.9h-2.5l-7-35.9l0.1,35.9h-2.7l0.3-38.9h4l6.5,33.5l6.5-33.5h4l0.4,38.9H544.7z"/>
		<path d="M573.1,223.2c-2,2.4-5.3,2.5-7,2.5h-4v17.7h-2.7v-38.9h6.2c2.4,0,5.1-0.1,7.1,1.5c2.1,1.7,2.1,4.2,2.1,7.1v4.4
			C574.7,219.7,574.6,221.4,573.1,223.2z M572,214.2c0-3.5-0.1-5.3-1.6-6.5c-1-0.8-1.9-0.9-4.2-0.9H562v16.6h4.5
			c1.5,0,3.1-0.2,4.3-1.4c1.5-1.5,1.3-4.1,1.3-4.5V214.2z"/>
		<path d="M585.9,243.4v-38.9h2.7V241h10.3v2.4H585.9z"/>
		<path d="M611.7,207v15h9.3v2.4h-9.3V241h11.2v2.4H609v-38.9h14v2.4H611.7z"/>
	</g>
</g>
</svg>
