<?xml version="1.0" encoding="utf-8"?>
<!-- Generator: Adobe Illustrator 27.1.1, SVG Export Plug-In . SVG Version: 6.00 Build 0)  -->
<svg version="1.1" id="Layer_1" xmlns="http://www.w3.org/2000/svg" xmlns:xlink="http://www.w3.org/1999/xlink" x="0px" y="0px"
	 viewBox="0 0 65.2 102.3" style="enable-background:new 0 0 65.2 102.3;" xml:space="preserve">
<style type="text/css">
	.st0{fill:#535353;}
</style>
<path class="st0" d="M56.5,40.8c-0.9,1.6-2.3,2.8-4,3.5l7.7,4.4v31.9L35.1,95.1V47.7c-1.1,0.1-2.2,0.1-3.3,0.1c-0.6,0-1.1,0-1.7,0
	v14.3H5V48.7l7.1-4.1c-1.9-0.4-3.5-1.6-4.5-3.2L0,45.8v37.7l32.6,18.8l32.6-18.8V45.8L56.5,40.8z M30.1,95.1L5,80.6V67.2h25.1V95.1z
	"/>
<path class="st0" d="M29.8,34.4c0.1,0,0.2,0,0.3,0v-0.2L29.8,34.4z"/>
<path class="st0" d="M35.1,34.2L35.1,34.2c0.1,0.1,0.1,0.1,0.2,0.1L35.1,34.2z"/>
<path class="st0" d="M53.8,15.9c4.4,0,8-3.6,8-8c0-4.4-3.6-8-8-8C50,0,46.6,2.8,46,6.4c-4.2-0.2-8.4-1.2-12.1-3.2
	c-2.2-1-4.4-1.2-6.6-0.4c-2.6,1-4.4,2.8-5.6,5.2l-9.2,20.1c-1,0.2-1.8,0.6-2.6,1c-2,1.2-3.4,3.4-3.8,6c-0.3,2.3,0.3,4.6,1.5,6.3
	c1.1,1.6,2.6,2.7,4.5,3.2c0,0,0,0,0,0l4.4,1.2c4.5,1.2,9,1.9,13.6,2c0.6,0,1.1,0,1.7,0c1.1,0,2.2,0,3.3-0.1c4.1-0.2,8.1-0.8,12-1.9
	l4.4-1.2c0.4-0.1,0.7-0.2,1-0.3c1.7-0.7,3.1-1.9,4-3.5c1-1.7,1.3-3.7,1-5.7c-0.4-2.4-1.8-4.6-3.8-6c-0.8-0.4-1.6-0.8-2.4-1l-5.6-9.2
	c1.9-1,3.5-2.2,4.9-3.6C51.6,15.7,52.6,15.9,53.8,15.9z M48.4,32c1.2-0.4,2.2-0.2,3.2,0.4c1.2,0.8,2,1.8,2.2,3.2
	c0.2,1.2,0,2.3-0.6,3.3c-0.6,0.9-1.5,1.6-2.6,1.9l-2.8,0.8L46.2,42c-3.6,0.9-7.4,1.5-11.1,1.7c-1.7,0.1-3.3,0.1-5,0
	c-4.2-0.1-8.4-0.7-12.5-1.7l-0.7-0.2l-3.7-1c-0.9-0.2-1.6-0.7-2.2-1.4c-0.9-1-1.3-2.4-1-3.8c0.2-1.4,1-2.4,2-3.2
	c0.8-0.4,1.4-0.6,2.2-0.6c0.4,0,0.8,0,1,0.2c2,0.6,4.1,1.1,6.2,1.5c2.8,0.5,5.6,0.8,8.4,0.9l0.3-0.2v0.2c1.7,0,3.3,0,5-0.1v-0.1
	l0.2,0.1c2.7-0.2,5.4-0.5,8.1-1.1C45.1,32.9,46.7,32.5,48.4,32z M53.8,4c2.2,0,4,1.8,4,4c0,2.2-1.8,4-4,4c-2.2,0-4-1.8-4-4
	C49.8,5.8,51.6,4,53.8,4z"/>
<circle class="st0" cx="53.8" cy="8" r="4"/>
<path class="st0" d="M53.8,35.6c-0.2-1.4-1-2.4-2.2-3.2c-1-0.6-2-0.8-3.2-0.4c-1.7,0.5-3.3,0.9-5,1.2c-2.7,0.5-5.4,0.9-8.1,1.1
	c-0.1,0-0.1,0-0.2,0c-1.7,0.1-3.3,0.1-5,0.1c-0.1,0-0.2,0-0.3,0c-2.8-0.1-5.6-0.4-8.4-0.9c-2.1-0.4-4.1-0.9-6.2-1.5
	c-0.2-0.2-0.6-0.2-1-0.2c-0.8,0-1.4,0.2-2.2,0.6c-1,0.8-1.8,1.8-2,3.2c-0.2,1.5,0.2,2.8,1,3.8c0.6,0.6,1.3,1.1,2.2,1.4l3.7,1
	l0.7,0.2c4.1,1.1,8.3,1.6,12.5,1.7c1.7,0.1,3.3,0,5,0c3.7-0.2,7.5-0.8,11.1-1.7l1.6-0.4l2.8-0.8c1.1-0.3,2-1,2.6-1.9
	C53.8,37.9,54,36.8,53.8,35.6z"/>
</svg>
