<?xml version="1.0" encoding="utf-8"?>
<!-- Generator: Adobe Illustrator 28.0.0, SVG Export Plug-In . SVG Version: 6.00 Build 0)  -->
<svg version="1.1" id="Layer_1" xmlns="http://www.w3.org/2000/svg" xmlns:xlink="http://www.w3.org/1999/xlink" x="0px" y="0px"
	 viewBox="0 0 436.8 370.7" enable-background="new 0 0 436.8 370.7" xml:space="preserve">
<polygon points="285.7,168.8 285.7,135.2 252,135.2 252,101.6 218.4,101.6 218.4,67.9 184.8,67.9 184.8,34.3 151.1,34.3 151.1,0.7 
	117.5,0.7 117.5,34.3 117.5,67.9 117.5,101.6 117.5,135.2 117.5,168.8 117.5,202.5 117.5,236.1 117.5,269.8 117.5,303.4 117.5,337 
	117.5,370.7 151.1,370.7 151.1,337 184.8,337 184.8,303.4 218.4,303.4 218.4,269.8 252,269.8 252,236.1 285.7,236.1 285.7,202.5 
	319.3,202.5 319.3,168.8 "/>
</svg>
